<mxfile host="app.diagrams.net" modified="2021-11-10T12:22:40.177Z" agent="5.0 (Windows NT 10.0; Win64; x64) AppleWebKit/537.36 (KHTML, like Gecko) Chrome/95.0.4638.69 Safari/537.36" etag="CdD97eC41d6oaVNufmTU" version="15.7.1" type="github" pages="2">
  <diagram id="rEQ13ESsdebVXu5kFstZ" name="Page-1">
    <mxGraphModel dx="1422" dy="754" grid="1" gridSize="10" guides="1" tooltips="1" connect="1" arrows="1" fold="1" page="1" pageScale="1" pageWidth="850" pageHeight="1100" math="0" shadow="0">
      <root>
        <mxCell id="0" />
        <mxCell id="1" parent="0" />
        <mxCell id="eujn3jIK-lYf2msssP14-41" style="edgeStyle=orthogonalEdgeStyle;rounded=0;orthogonalLoop=1;jettySize=auto;html=1;exitX=1;exitY=0.25;exitDx=0;exitDy=0;endArrow=none;endFill=0;" parent="1" source="eujn3jIK-lYf2msssP14-1" edge="1">
          <mxGeometry relative="1" as="geometry">
            <mxPoint x="590" y="62" as="targetPoint" />
          </mxGeometry>
        </mxCell>
        <mxCell id="eujn3jIK-lYf2msssP14-71" style="edgeStyle=orthogonalEdgeStyle;rounded=0;orthogonalLoop=1;jettySize=auto;html=1;endArrow=none;endFill=0;" parent="1" source="eujn3jIK-lYf2msssP14-1" edge="1">
          <mxGeometry relative="1" as="geometry">
            <mxPoint x="667" y="400" as="targetPoint" />
            <Array as="points">
              <mxPoint x="270" y="600" />
              <mxPoint x="667" y="600" />
            </Array>
          </mxGeometry>
        </mxCell>
        <mxCell id="eujn3jIK-lYf2msssP14-1" value="Staff" style="swimlane;fontStyle=0;childLayout=stackLayout;horizontal=1;startSize=26;horizontalStack=0;resizeParent=1;resizeParentMax=0;resizeLast=0;collapsible=1;marginBottom=0;align=center;fontSize=14;fillColor=none;" parent="1" vertex="1">
          <mxGeometry x="190" y="40" width="160" height="86" as="geometry" />
        </mxCell>
        <mxCell id="eujn3jIK-lYf2msssP14-2" value="StaffNO {PK}" style="text;strokeColor=none;fillColor=none;spacingLeft=4;spacingRight=4;overflow=hidden;rotatable=0;points=[[0,0.5],[1,0.5]];portConstraint=eastwest;fontSize=12;" parent="eujn3jIK-lYf2msssP14-1" vertex="1">
          <mxGeometry y="26" width="160" height="30" as="geometry" />
        </mxCell>
        <mxCell id="eujn3jIK-lYf2msssP14-3" value="StaffName" style="text;strokeColor=none;fillColor=none;spacingLeft=4;spacingRight=4;overflow=hidden;rotatable=0;points=[[0,0.5],[1,0.5]];portConstraint=eastwest;fontSize=12;" parent="eujn3jIK-lYf2msssP14-1" vertex="1">
          <mxGeometry y="56" width="160" height="30" as="geometry" />
        </mxCell>
        <mxCell id="eujn3jIK-lYf2msssP14-5" value="VisitingLecturer" style="swimlane;fontStyle=0;childLayout=stackLayout;horizontal=1;startSize=26;horizontalStack=0;resizeParent=1;resizeParentMax=0;resizeLast=0;collapsible=1;marginBottom=0;align=center;fontSize=14;fillColor=none;" parent="1" vertex="1">
          <mxGeometry x="40" y="213" width="160" height="86" as="geometry" />
        </mxCell>
        <mxCell id="eujn3jIK-lYf2msssP14-6" value="StaffNO {PK} {FK}" style="text;strokeColor=none;fillColor=none;spacingLeft=4;spacingRight=4;overflow=hidden;rotatable=0;points=[[0,0.5],[1,0.5]];portConstraint=eastwest;fontSize=12;" parent="eujn3jIK-lYf2msssP14-5" vertex="1">
          <mxGeometry y="26" width="160" height="30" as="geometry" />
        </mxCell>
        <mxCell id="eujn3jIK-lYf2msssP14-7" value="hourlyRate" style="text;strokeColor=none;fillColor=none;spacingLeft=4;spacingRight=4;overflow=hidden;rotatable=0;points=[[0,0.5],[1,0.5]];portConstraint=eastwest;fontSize=12;" parent="eujn3jIK-lYf2msssP14-5" vertex="1">
          <mxGeometry y="56" width="160" height="30" as="geometry" />
        </mxCell>
        <mxCell id="eujn3jIK-lYf2msssP14-28" style="edgeStyle=orthogonalEdgeStyle;rounded=0;orthogonalLoop=1;jettySize=auto;html=1;entryX=0.5;entryY=0;entryDx=0;entryDy=0;endArrow=none;endFill=0;" parent="1" source="eujn3jIK-lYf2msssP14-8" target="eujn3jIK-lYf2msssP14-25" edge="1">
          <mxGeometry relative="1" as="geometry" />
        </mxCell>
        <mxCell id="eujn3jIK-lYf2msssP14-8" value="FulltimeLecturer" style="swimlane;fontStyle=0;childLayout=stackLayout;horizontal=1;startSize=26;horizontalStack=0;resizeParent=1;resizeParentMax=0;resizeLast=0;collapsible=1;marginBottom=0;align=center;fontSize=14;fillColor=none;" parent="1" vertex="1">
          <mxGeometry x="346" y="213" width="160" height="86" as="geometry" />
        </mxCell>
        <mxCell id="eujn3jIK-lYf2msssP14-9" value="StaffNO {PK}" style="text;strokeColor=none;fillColor=none;spacingLeft=4;spacingRight=4;overflow=hidden;rotatable=0;points=[[0,0.5],[1,0.5]];portConstraint=eastwest;fontSize=12;" parent="eujn3jIK-lYf2msssP14-8" vertex="1">
          <mxGeometry y="26" width="160" height="30" as="geometry" />
        </mxCell>
        <mxCell id="eujn3jIK-lYf2msssP14-10" value="permSalery" style="text;strokeColor=none;fillColor=none;spacingLeft=4;spacingRight=4;overflow=hidden;rotatable=0;points=[[0,0.5],[1,0.5]];portConstraint=eastwest;fontSize=12;" parent="eujn3jIK-lYf2msssP14-8" vertex="1">
          <mxGeometry y="56" width="160" height="30" as="geometry" />
        </mxCell>
        <mxCell id="eujn3jIK-lYf2msssP14-11" style="edgeStyle=orthogonalEdgeStyle;rounded=0;orthogonalLoop=1;jettySize=auto;html=1;entryX=0.5;entryY=0;entryDx=0;entryDy=0;endArrow=none;endFill=0;" parent="1" source="eujn3jIK-lYf2msssP14-2" target="eujn3jIK-lYf2msssP14-5" edge="1">
          <mxGeometry relative="1" as="geometry" />
        </mxCell>
        <mxCell id="eujn3jIK-lYf2msssP14-12" style="edgeStyle=orthogonalEdgeStyle;rounded=0;orthogonalLoop=1;jettySize=auto;html=1;endArrow=none;endFill=0;" parent="1" source="eujn3jIK-lYf2msssP14-3" target="eujn3jIK-lYf2msssP14-8" edge="1">
          <mxGeometry relative="1" as="geometry">
            <Array as="points">
              <mxPoint x="426" y="111" />
            </Array>
          </mxGeometry>
        </mxCell>
        <mxCell id="eujn3jIK-lYf2msssP14-13" value="can be" style="text;html=1;strokeColor=none;fillColor=none;align=center;verticalAlign=middle;whiteSpace=wrap;rounded=0;" parent="1" vertex="1">
          <mxGeometry x="60" y="120" width="60" height="30" as="geometry" />
        </mxCell>
        <mxCell id="eujn3jIK-lYf2msssP14-14" value="" style="triangle;whiteSpace=wrap;html=1;fillColor=#000000;rotation=90;" parent="1" vertex="1">
          <mxGeometry x="82.5" y="140" width="15" height="25" as="geometry" />
        </mxCell>
        <mxCell id="eujn3jIK-lYf2msssP14-17" value="can be" style="text;html=1;strokeColor=none;fillColor=none;align=center;verticalAlign=middle;whiteSpace=wrap;rounded=0;" parent="1" vertex="1">
          <mxGeometry x="425" y="120" width="60" height="30" as="geometry" />
        </mxCell>
        <mxCell id="eujn3jIK-lYf2msssP14-18" value="" style="triangle;whiteSpace=wrap;html=1;fillColor=#000000;rotation=90;" parent="1" vertex="1">
          <mxGeometry x="447.5" y="140" width="15" height="25" as="geometry" />
        </mxCell>
        <mxCell id="eujn3jIK-lYf2msssP14-19" value="0..1" style="text;html=1;strokeColor=none;fillColor=none;align=center;verticalAlign=middle;whiteSpace=wrap;rounded=0;" parent="1" vertex="1">
          <mxGeometry x="410" y="410" width="60" height="30" as="geometry" />
        </mxCell>
        <mxCell id="eujn3jIK-lYf2msssP14-20" value="1..1" style="text;html=1;strokeColor=none;fillColor=none;align=center;verticalAlign=middle;whiteSpace=wrap;rounded=0;" parent="1" vertex="1">
          <mxGeometry x="350" y="110" width="60" height="30" as="geometry" />
        </mxCell>
        <mxCell id="eujn3jIK-lYf2msssP14-23" value="1..1" style="text;html=1;strokeColor=none;fillColor=none;align=center;verticalAlign=middle;whiteSpace=wrap;rounded=0;" parent="1" vertex="1">
          <mxGeometry x="130" y="80" width="60" height="30" as="geometry" />
        </mxCell>
        <mxCell id="eujn3jIK-lYf2msssP14-24" value="0..1" style="text;html=1;strokeColor=none;fillColor=none;align=center;verticalAlign=middle;whiteSpace=wrap;rounded=0;" parent="1" vertex="1">
          <mxGeometry x="120" y="183" width="60" height="30" as="geometry" />
        </mxCell>
        <mxCell id="eujn3jIK-lYf2msssP14-60" style="edgeStyle=orthogonalEdgeStyle;rounded=0;orthogonalLoop=1;jettySize=auto;html=1;exitX=0.75;exitY=0;exitDx=0;exitDy=0;entryX=0;entryY=0.5;entryDx=0;entryDy=0;endArrow=none;endFill=0;" parent="1" source="eujn3jIK-lYf2msssP14-25" target="eujn3jIK-lYf2msssP14-39" edge="1">
          <mxGeometry relative="1" as="geometry" />
        </mxCell>
        <mxCell id="eujn3jIK-lYf2msssP14-25" value="Course" style="swimlane;fontStyle=0;childLayout=stackLayout;horizontal=1;startSize=26;horizontalStack=0;resizeParent=1;resizeParentMax=0;resizeLast=0;collapsible=1;marginBottom=0;align=center;fontSize=14;fillColor=none;" parent="1" vertex="1">
          <mxGeometry x="346" y="440" width="160" height="116" as="geometry" />
        </mxCell>
        <mxCell id="eujn3jIK-lYf2msssP14-26" value="courseId {PK}" style="text;strokeColor=none;fillColor=none;spacingLeft=4;spacingRight=4;overflow=hidden;rotatable=0;points=[[0,0.5],[1,0.5]];portConstraint=eastwest;fontSize=12;" parent="eujn3jIK-lYf2msssP14-25" vertex="1">
          <mxGeometry y="26" width="160" height="30" as="geometry" />
        </mxCell>
        <mxCell id="eujn3jIK-lYf2msssP14-29" value="courseName" style="text;strokeColor=none;fillColor=none;spacingLeft=4;spacingRight=4;overflow=hidden;rotatable=0;points=[[0,0.5],[1,0.5]];portConstraint=eastwest;fontSize=12;" parent="eujn3jIK-lYf2msssP14-25" vertex="1">
          <mxGeometry y="56" width="160" height="30" as="geometry" />
        </mxCell>
        <mxCell id="eujn3jIK-lYf2msssP14-27" value="staffNo {FK}" style="text;strokeColor=none;fillColor=none;spacingLeft=4;spacingRight=4;overflow=hidden;rotatable=0;points=[[0,0.5],[1,0.5]];portConstraint=eastwest;fontSize=12;" parent="eujn3jIK-lYf2msssP14-25" vertex="1">
          <mxGeometry y="86" width="160" height="30" as="geometry" />
        </mxCell>
        <mxCell id="eujn3jIK-lYf2msssP14-30" value="1..1" style="text;html=1;strokeColor=none;fillColor=none;align=center;verticalAlign=middle;whiteSpace=wrap;rounded=0;" parent="1" vertex="1">
          <mxGeometry x="420" y="300" width="60" height="30" as="geometry" />
        </mxCell>
        <mxCell id="eujn3jIK-lYf2msssP14-47" style="edgeStyle=orthogonalEdgeStyle;rounded=0;orthogonalLoop=1;jettySize=auto;html=1;entryX=0.5;entryY=0;entryDx=0;entryDy=0;endArrow=none;endFill=0;" parent="1" source="eujn3jIK-lYf2msssP14-31" target="eujn3jIK-lYf2msssP14-37" edge="1">
          <mxGeometry relative="1" as="geometry" />
        </mxCell>
        <mxCell id="eujn3jIK-lYf2msssP14-31" value="recommendation" style="swimlane;fontStyle=0;childLayout=stackLayout;horizontal=1;startSize=26;horizontalStack=0;resizeParent=1;resizeParentMax=0;resizeLast=0;collapsible=1;marginBottom=0;align=center;fontSize=14;fillColor=none;" parent="1" vertex="1">
          <mxGeometry x="590" y="40" width="160" height="116" as="geometry" />
        </mxCell>
        <mxCell id="eujn3jIK-lYf2msssP14-32" value="StaffNO {FK}" style="text;strokeColor=none;fillColor=none;spacingLeft=4;spacingRight=4;overflow=hidden;rotatable=0;points=[[0,0.5],[1,0.5]];portConstraint=eastwest;fontSize=12;" parent="eujn3jIK-lYf2msssP14-31" vertex="1">
          <mxGeometry y="26" width="160" height="30" as="geometry" />
        </mxCell>
        <mxCell id="eujn3jIK-lYf2msssP14-54" value="moduleNo {FK}" style="text;strokeColor=none;fillColor=none;spacingLeft=4;spacingRight=4;overflow=hidden;rotatable=0;points=[[0,0.5],[1,0.5]];portConstraint=eastwest;fontSize=12;" parent="eujn3jIK-lYf2msssP14-31" vertex="1">
          <mxGeometry y="56" width="160" height="30" as="geometry" />
        </mxCell>
        <mxCell id="eujn3jIK-lYf2msssP14-33" value="textbookId {FK}" style="text;strokeColor=none;fillColor=none;spacingLeft=4;spacingRight=4;overflow=hidden;rotatable=0;points=[[0,0.5],[1,0.5]];portConstraint=eastwest;fontSize=12;" parent="eujn3jIK-lYf2msssP14-31" vertex="1">
          <mxGeometry y="86" width="160" height="30" as="geometry" />
        </mxCell>
        <mxCell id="eujn3jIK-lYf2msssP14-34" value="Textbook" style="swimlane;fontStyle=0;childLayout=stackLayout;horizontal=1;startSize=26;horizontalStack=0;resizeParent=1;resizeParentMax=0;resizeLast=0;collapsible=1;marginBottom=0;align=center;fontSize=14;fillColor=none;" parent="1" vertex="1">
          <mxGeometry x="1000" y="40" width="160" height="116" as="geometry" />
        </mxCell>
        <mxCell id="eujn3jIK-lYf2msssP14-35" value="textbookId {PK}" style="text;strokeColor=none;fillColor=none;spacingLeft=4;spacingRight=4;overflow=hidden;rotatable=0;points=[[0,0.5],[1,0.5]];portConstraint=eastwest;fontSize=12;" parent="eujn3jIK-lYf2msssP14-34" vertex="1">
          <mxGeometry y="26" width="160" height="30" as="geometry" />
        </mxCell>
        <mxCell id="eujn3jIK-lYf2msssP14-40" value="NSBM" style="text;strokeColor=none;fillColor=none;spacingLeft=4;spacingRight=4;overflow=hidden;rotatable=0;points=[[0,0.5],[1,0.5]];portConstraint=eastwest;fontSize=12;" parent="eujn3jIK-lYf2msssP14-34" vertex="1">
          <mxGeometry y="56" width="160" height="30" as="geometry" />
        </mxCell>
        <mxCell id="eujn3jIK-lYf2msssP14-36" value="textbookName" style="text;strokeColor=none;fillColor=none;spacingLeft=4;spacingRight=4;overflow=hidden;rotatable=0;points=[[0,0.5],[1,0.5]];portConstraint=eastwest;fontSize=12;" parent="eujn3jIK-lYf2msssP14-34" vertex="1">
          <mxGeometry y="86" width="160" height="30" as="geometry" />
        </mxCell>
        <mxCell id="eujn3jIK-lYf2msssP14-37" value="Module" style="swimlane;fontStyle=0;childLayout=stackLayout;horizontal=1;startSize=26;horizontalStack=0;resizeParent=1;resizeParentMax=0;resizeLast=0;collapsible=1;marginBottom=0;align=center;fontSize=14;fillColor=none;" parent="1" vertex="1">
          <mxGeometry x="590" y="260" width="160" height="146" as="geometry" />
        </mxCell>
        <mxCell id="eujn3jIK-lYf2msssP14-38" value="moduleNo {PK}" style="text;strokeColor=none;fillColor=none;spacingLeft=4;spacingRight=4;overflow=hidden;rotatable=0;points=[[0,0.5],[1,0.5]];portConstraint=eastwest;fontSize=12;" parent="eujn3jIK-lYf2msssP14-37" vertex="1">
          <mxGeometry y="26" width="160" height="30" as="geometry" />
        </mxCell>
        <mxCell id="eujn3jIK-lYf2msssP14-59" value="moduleName" style="text;strokeColor=none;fillColor=none;spacingLeft=4;spacingRight=4;overflow=hidden;rotatable=0;points=[[0,0.5],[1,0.5]];portConstraint=eastwest;fontSize=12;" parent="eujn3jIK-lYf2msssP14-37" vertex="1">
          <mxGeometry y="56" width="160" height="30" as="geometry" />
        </mxCell>
        <mxCell id="eujn3jIK-lYf2msssP14-39" value="courseId {FK}" style="text;strokeColor=none;fillColor=none;spacingLeft=4;spacingRight=4;overflow=hidden;rotatable=0;points=[[0,0.5],[1,0.5]];portConstraint=eastwest;fontSize=12;" parent="eujn3jIK-lYf2msssP14-37" vertex="1">
          <mxGeometry y="86" width="160" height="30" as="geometry" />
        </mxCell>
        <mxCell id="eujn3jIK-lYf2msssP14-66" value="StaffId {FK}" style="text;strokeColor=none;fillColor=none;spacingLeft=4;spacingRight=4;overflow=hidden;rotatable=0;points=[[0,0.5],[1,0.5]];portConstraint=eastwest;fontSize=12;" parent="eujn3jIK-lYf2msssP14-37" vertex="1">
          <mxGeometry y="116" width="160" height="30" as="geometry" />
        </mxCell>
        <mxCell id="eujn3jIK-lYf2msssP14-42" value="makes" style="text;html=1;strokeColor=none;fillColor=none;align=center;verticalAlign=middle;whiteSpace=wrap;rounded=0;" parent="1" vertex="1">
          <mxGeometry x="440" y="30" width="60" height="30" as="geometry" />
        </mxCell>
        <mxCell id="eujn3jIK-lYf2msssP14-43" value="" style="triangle;whiteSpace=wrap;html=1;fillColor=#000000;rotation=90;direction=north;" parent="1" vertex="1">
          <mxGeometry x="500" y="37.5" width="25" height="15" as="geometry" />
        </mxCell>
        <mxCell id="eujn3jIK-lYf2msssP14-44" style="edgeStyle=orthogonalEdgeStyle;rounded=0;orthogonalLoop=1;jettySize=auto;html=1;endArrow=none;endFill=0;" parent="1" source="eujn3jIK-lYf2msssP14-32" target="eujn3jIK-lYf2msssP14-35" edge="1">
          <mxGeometry relative="1" as="geometry" />
        </mxCell>
        <mxCell id="eujn3jIK-lYf2msssP14-45" value="contains" style="text;html=1;strokeColor=none;fillColor=none;align=center;verticalAlign=middle;whiteSpace=wrap;rounded=0;" parent="1" vertex="1">
          <mxGeometry x="820" y="52.5" width="60" height="30" as="geometry" />
        </mxCell>
        <mxCell id="eujn3jIK-lYf2msssP14-46" value="" style="triangle;whiteSpace=wrap;html=1;fillColor=#000000;rotation=90;direction=north;" parent="1" vertex="1">
          <mxGeometry x="880" y="60" width="25" height="15" as="geometry" />
        </mxCell>
        <mxCell id="eujn3jIK-lYf2msssP14-48" value="has" style="text;html=1;strokeColor=none;fillColor=none;align=center;verticalAlign=middle;whiteSpace=wrap;rounded=0;" parent="1" vertex="1">
          <mxGeometry x="610" y="198" width="60" height="30" as="geometry" />
        </mxCell>
        <mxCell id="eujn3jIK-lYf2msssP14-49" value="" style="triangle;whiteSpace=wrap;html=1;fillColor=#000000;rotation=90;direction=west;" parent="1" vertex="1">
          <mxGeometry x="632.5" y="180" width="15" height="25" as="geometry" />
        </mxCell>
        <mxCell id="eujn3jIK-lYf2msssP14-50" value="manages" style="text;html=1;strokeColor=none;fillColor=none;align=center;verticalAlign=middle;whiteSpace=wrap;rounded=0;" parent="1" vertex="1">
          <mxGeometry x="370" y="346" width="60" height="30" as="geometry" />
        </mxCell>
        <mxCell id="eujn3jIK-lYf2msssP14-51" value="" style="triangle;whiteSpace=wrap;html=1;fillColor=#000000;rotation=90;" parent="1" vertex="1">
          <mxGeometry x="392.5" y="366" width="15" height="25" as="geometry" />
        </mxCell>
        <mxCell id="eujn3jIK-lYf2msssP14-52" value="1..*" style="text;html=1;strokeColor=none;fillColor=none;align=center;verticalAlign=middle;whiteSpace=wrap;rounded=0;" parent="1" vertex="1">
          <mxGeometry x="530" y="60" width="60" height="30" as="geometry" />
        </mxCell>
        <mxCell id="eujn3jIK-lYf2msssP14-53" value="1..1" style="text;html=1;strokeColor=none;fillColor=none;align=center;verticalAlign=middle;whiteSpace=wrap;rounded=0;" parent="1" vertex="1">
          <mxGeometry x="350" y="60" width="60" height="30" as="geometry" />
        </mxCell>
        <mxCell id="eujn3jIK-lYf2msssP14-55" value="1..*" style="text;html=1;strokeColor=none;fillColor=none;align=center;verticalAlign=middle;whiteSpace=wrap;rounded=0;" parent="1" vertex="1">
          <mxGeometry x="670" y="156" width="60" height="30" as="geometry" />
        </mxCell>
        <mxCell id="eujn3jIK-lYf2msssP14-56" value="1..1" style="text;html=1;strokeColor=none;fillColor=none;align=center;verticalAlign=middle;whiteSpace=wrap;rounded=0;" parent="1" vertex="1">
          <mxGeometry x="670" y="230" width="60" height="30" as="geometry" />
        </mxCell>
        <mxCell id="eujn3jIK-lYf2msssP14-57" value="1..*" style="text;html=1;strokeColor=none;fillColor=none;align=center;verticalAlign=middle;whiteSpace=wrap;rounded=0;" parent="1" vertex="1">
          <mxGeometry x="750" y="83" width="60" height="30" as="geometry" />
        </mxCell>
        <mxCell id="eujn3jIK-lYf2msssP14-58" value="1..1" style="text;html=1;strokeColor=none;fillColor=none;align=center;verticalAlign=middle;whiteSpace=wrap;rounded=0;" parent="1" vertex="1">
          <mxGeometry x="940" y="83" width="60" height="30" as="geometry" />
        </mxCell>
        <mxCell id="eujn3jIK-lYf2msssP14-61" value="consists of" style="text;html=1;strokeColor=none;fillColor=none;align=center;verticalAlign=middle;whiteSpace=wrap;rounded=0;" parent="1" vertex="1">
          <mxGeometry x="485" y="330" width="60" height="30" as="geometry" />
        </mxCell>
        <mxCell id="eujn3jIK-lYf2msssP14-62" value="" style="triangle;whiteSpace=wrap;html=1;fillColor=#000000;rotation=90;direction=north;" parent="1" vertex="1">
          <mxGeometry x="545" y="337.5" width="25" height="15" as="geometry" />
        </mxCell>
        <mxCell id="eujn3jIK-lYf2msssP14-63" value="0..1" style="text;html=1;strokeColor=none;fillColor=none;align=center;verticalAlign=middle;whiteSpace=wrap;rounded=0;" parent="1" vertex="1">
          <mxGeometry x="462.5" y="410" width="60" height="30" as="geometry" />
        </mxCell>
        <mxCell id="eujn3jIK-lYf2msssP14-64" value="1..*" style="text;html=1;strokeColor=none;fillColor=none;align=center;verticalAlign=middle;whiteSpace=wrap;rounded=0;" parent="1" vertex="1">
          <mxGeometry x="530" y="361" width="60" height="30" as="geometry" />
        </mxCell>
        <mxCell id="eujn3jIK-lYf2msssP14-65" style="edgeStyle=orthogonalEdgeStyle;rounded=0;orthogonalLoop=1;jettySize=auto;html=1;exitX=1;exitY=0.5;exitDx=0;exitDy=0;endArrow=none;endFill=0;" parent="1" source="eujn3jIK-lYf2msssP14-10" edge="1">
          <mxGeometry relative="1" as="geometry">
            <mxPoint x="590" y="313" as="targetPoint" />
            <Array as="points">
              <mxPoint x="506" y="260" />
              <mxPoint x="548" y="260" />
              <mxPoint x="548" y="313" />
            </Array>
          </mxGeometry>
        </mxCell>
        <mxCell id="eujn3jIK-lYf2msssP14-67" value="leads" style="text;html=1;strokeColor=none;fillColor=none;align=center;verticalAlign=middle;whiteSpace=wrap;rounded=0;" parent="1" vertex="1">
          <mxGeometry x="532.5" y="230" width="60" height="30" as="geometry" />
        </mxCell>
        <mxCell id="eujn3jIK-lYf2msssP14-68" value="" style="triangle;whiteSpace=wrap;html=1;fillColor=#000000;rotation=90;direction=east;" parent="1" vertex="1">
          <mxGeometry x="555" y="260" width="15" height="25" as="geometry" />
        </mxCell>
        <mxCell id="eujn3jIK-lYf2msssP14-69" value="0..*" style="text;html=1;strokeColor=none;fillColor=none;align=center;verticalAlign=middle;whiteSpace=wrap;rounded=0;" parent="1" vertex="1">
          <mxGeometry x="545" y="316" width="60" height="30" as="geometry" />
        </mxCell>
        <mxCell id="eujn3jIK-lYf2msssP14-70" value="1..1" style="text;html=1;strokeColor=none;fillColor=none;align=center;verticalAlign=middle;whiteSpace=wrap;rounded=0;" parent="1" vertex="1">
          <mxGeometry x="495" y="257.5" width="60" height="30" as="geometry" />
        </mxCell>
        <mxCell id="eujn3jIK-lYf2msssP14-72" value="teaches on" style="text;html=1;strokeColor=none;fillColor=none;align=center;verticalAlign=middle;whiteSpace=wrap;rounded=0;" parent="1" vertex="1">
          <mxGeometry x="200" y="352.5" width="70" height="30" as="geometry" />
        </mxCell>
        <mxCell id="eujn3jIK-lYf2msssP14-73" value="" style="triangle;whiteSpace=wrap;html=1;fillColor=#000000;rotation=90;" parent="1" vertex="1">
          <mxGeometry x="232.5" y="372.5" width="15" height="25" as="geometry" />
        </mxCell>
        <mxCell id="eujn3jIK-lYf2msssP14-74" value="0..*" style="text;html=1;strokeColor=none;fillColor=none;align=center;verticalAlign=middle;whiteSpace=wrap;rounded=0;" parent="1" vertex="1">
          <mxGeometry x="270" y="126" width="60" height="30" as="geometry" />
        </mxCell>
        <mxCell id="eujn3jIK-lYf2msssP14-75" value="0..*" style="text;html=1;strokeColor=none;fillColor=none;align=center;verticalAlign=middle;whiteSpace=wrap;rounded=0;" parent="1" vertex="1">
          <mxGeometry x="605" y="410" width="60" height="30" as="geometry" />
        </mxCell>
        <mxCell id="eujn3jIK-lYf2msssP14-76" value="Student" style="swimlane;fontStyle=0;childLayout=stackLayout;horizontal=1;startSize=26;horizontalStack=0;resizeParent=1;resizeParentMax=0;resizeLast=0;collapsible=1;marginBottom=0;align=center;fontSize=14;fillColor=none;" parent="1" vertex="1">
          <mxGeometry x="860" y="440" width="160" height="146" as="geometry" />
        </mxCell>
        <mxCell id="eujn3jIK-lYf2msssP14-77" value="studentId {PK}" style="text;strokeColor=none;fillColor=none;spacingLeft=4;spacingRight=4;overflow=hidden;rotatable=0;points=[[0,0.5],[1,0.5]];portConstraint=eastwest;fontSize=12;" parent="eujn3jIK-lYf2msssP14-76" vertex="1">
          <mxGeometry y="26" width="160" height="30" as="geometry" />
        </mxCell>
        <mxCell id="eujn3jIK-lYf2msssP14-78" value="studentName" style="text;strokeColor=none;fillColor=none;spacingLeft=4;spacingRight=4;overflow=hidden;rotatable=0;points=[[0,0.5],[1,0.5]];portConstraint=eastwest;fontSize=12;" parent="eujn3jIK-lYf2msssP14-76" vertex="1">
          <mxGeometry y="56" width="160" height="30" as="geometry" />
        </mxCell>
        <mxCell id="eujn3jIK-lYf2msssP14-79" value="textbookName" style="text;strokeColor=none;fillColor=none;spacingLeft=4;spacingRight=4;overflow=hidden;rotatable=0;points=[[0,0.5],[1,0.5]];portConstraint=eastwest;fontSize=12;" parent="eujn3jIK-lYf2msssP14-76" vertex="1">
          <mxGeometry y="86" width="160" height="30" as="geometry" />
        </mxCell>
        <mxCell id="eujn3jIK-lYf2msssP14-83" value="courseId {FK}" style="text;strokeColor=none;fillColor=none;spacingLeft=4;spacingRight=4;overflow=hidden;rotatable=0;points=[[0,0.5],[1,0.5]];portConstraint=eastwest;fontSize=12;" parent="eujn3jIK-lYf2msssP14-76" vertex="1">
          <mxGeometry y="116" width="160" height="30" as="geometry" />
        </mxCell>
        <mxCell id="eujn3jIK-lYf2msssP14-80" style="edgeStyle=orthogonalEdgeStyle;rounded=0;orthogonalLoop=1;jettySize=auto;html=1;endArrow=none;endFill=0;" parent="1" source="eujn3jIK-lYf2msssP14-29" target="eujn3jIK-lYf2msssP14-78" edge="1">
          <mxGeometry relative="1" as="geometry" />
        </mxCell>
        <mxCell id="eujn3jIK-lYf2msssP14-81" value="registers" style="text;html=1;strokeColor=none;fillColor=none;align=center;verticalAlign=middle;whiteSpace=wrap;rounded=0;" parent="1" vertex="1">
          <mxGeometry x="700" y="483" width="60" height="30" as="geometry" />
        </mxCell>
        <mxCell id="eujn3jIK-lYf2msssP14-82" value="" style="triangle;whiteSpace=wrap;html=1;fillColor=#000000;rotation=90;direction=south;" parent="1" vertex="1">
          <mxGeometry x="675" y="490.5" width="25" height="15" as="geometry" />
        </mxCell>
        <mxCell id="eujn3jIK-lYf2msssP14-84" value="0..*" style="text;html=1;strokeColor=none;fillColor=none;align=center;verticalAlign=middle;whiteSpace=wrap;rounded=0;" parent="1" vertex="1">
          <mxGeometry x="800" y="513" width="60" height="30" as="geometry" />
        </mxCell>
        <mxCell id="eujn3jIK-lYf2msssP14-85" value="0..1" style="text;html=1;strokeColor=none;fillColor=none;align=center;verticalAlign=middle;whiteSpace=wrap;rounded=0;" parent="1" vertex="1">
          <mxGeometry x="506" y="513" width="60" height="30" as="geometry" />
        </mxCell>
      </root>
    </mxGraphModel>
  </diagram>
  <diagram id="RBWXxRNZeKNHv0P92k3P" name="Re-Do">
    <mxGraphModel dx="1422" dy="754" grid="1" gridSize="10" guides="1" tooltips="1" connect="1" arrows="1" fold="1" page="1" pageScale="1" pageWidth="850" pageHeight="1100" math="0" shadow="0">
      <root>
        <mxCell id="Ydn4_hmh6kQKMiB_en1X-0" />
        <mxCell id="Ydn4_hmh6kQKMiB_en1X-1" parent="Ydn4_hmh6kQKMiB_en1X-0" />
        <mxCell id="Ydn4_hmh6kQKMiB_en1X-14" style="edgeStyle=orthogonalEdgeStyle;rounded=0;orthogonalLoop=1;jettySize=auto;html=1;endArrow=none;endFill=0;" edge="1" parent="Ydn4_hmh6kQKMiB_en1X-1" source="Ydn4_hmh6kQKMiB_en1X-2" target="Ydn4_hmh6kQKMiB_en1X-6">
          <mxGeometry relative="1" as="geometry" />
        </mxCell>
        <mxCell id="Ydn4_hmh6kQKMiB_en1X-15" style="edgeStyle=orthogonalEdgeStyle;rounded=0;orthogonalLoop=1;jettySize=auto;html=1;endArrow=none;endFill=0;" edge="1" parent="Ydn4_hmh6kQKMiB_en1X-1" source="Ydn4_hmh6kQKMiB_en1X-2" target="Ydn4_hmh6kQKMiB_en1X-10">
          <mxGeometry relative="1" as="geometry" />
        </mxCell>
        <mxCell id="Ydn4_hmh6kQKMiB_en1X-2" value="Staff" style="swimlane;fontStyle=0;childLayout=stackLayout;horizontal=1;startSize=30;horizontalStack=0;resizeParent=1;resizeParentMax=0;resizeLast=0;collapsible=1;marginBottom=0;fillColor=none;" vertex="1" parent="Ydn4_hmh6kQKMiB_en1X-1">
          <mxGeometry x="110" y="83" width="140" height="120" as="geometry" />
        </mxCell>
        <mxCell id="Ydn4_hmh6kQKMiB_en1X-3" value="Item 1" style="text;strokeColor=none;fillColor=none;align=left;verticalAlign=middle;spacingLeft=4;spacingRight=4;overflow=hidden;points=[[0,0.5],[1,0.5]];portConstraint=eastwest;rotatable=0;" vertex="1" parent="Ydn4_hmh6kQKMiB_en1X-2">
          <mxGeometry y="30" width="140" height="30" as="geometry" />
        </mxCell>
        <mxCell id="Ydn4_hmh6kQKMiB_en1X-4" value="Item 2" style="text;strokeColor=none;fillColor=none;align=left;verticalAlign=middle;spacingLeft=4;spacingRight=4;overflow=hidden;points=[[0,0.5],[1,0.5]];portConstraint=eastwest;rotatable=0;" vertex="1" parent="Ydn4_hmh6kQKMiB_en1X-2">
          <mxGeometry y="60" width="140" height="30" as="geometry" />
        </mxCell>
        <mxCell id="Ydn4_hmh6kQKMiB_en1X-5" value="Item 3" style="text;strokeColor=none;fillColor=none;align=left;verticalAlign=middle;spacingLeft=4;spacingRight=4;overflow=hidden;points=[[0,0.5],[1,0.5]];portConstraint=eastwest;rotatable=0;" vertex="1" parent="Ydn4_hmh6kQKMiB_en1X-2">
          <mxGeometry y="90" width="140" height="30" as="geometry" />
        </mxCell>
        <mxCell id="Ydn4_hmh6kQKMiB_en1X-38" style="edgeStyle=orthogonalEdgeStyle;rounded=0;orthogonalLoop=1;jettySize=auto;html=1;entryX=0;entryY=0.5;entryDx=0;entryDy=0;endArrow=none;endFill=0;" edge="1" parent="Ydn4_hmh6kQKMiB_en1X-2" source="Ydn4_hmh6kQKMiB_en1X-2" target="Ydn4_hmh6kQKMiB_en1X-3">
          <mxGeometry relative="1" as="geometry">
            <Array as="points">
              <mxPoint x="70" y="-43" />
              <mxPoint x="-50" y="-43" />
              <mxPoint x="-50" y="45" />
            </Array>
          </mxGeometry>
        </mxCell>
        <mxCell id="Ydn4_hmh6kQKMiB_en1X-6" value="Staff" style="swimlane;fontStyle=0;childLayout=stackLayout;horizontal=1;startSize=30;horizontalStack=0;resizeParent=1;resizeParentMax=0;resizeLast=0;collapsible=1;marginBottom=0;fillColor=none;" vertex="1" parent="Ydn4_hmh6kQKMiB_en1X-1">
          <mxGeometry x="10" y="283" width="140" height="120" as="geometry" />
        </mxCell>
        <mxCell id="Ydn4_hmh6kQKMiB_en1X-7" value="Item 1" style="text;strokeColor=none;fillColor=none;align=left;verticalAlign=middle;spacingLeft=4;spacingRight=4;overflow=hidden;points=[[0,0.5],[1,0.5]];portConstraint=eastwest;rotatable=0;" vertex="1" parent="Ydn4_hmh6kQKMiB_en1X-6">
          <mxGeometry y="30" width="140" height="30" as="geometry" />
        </mxCell>
        <mxCell id="Ydn4_hmh6kQKMiB_en1X-8" value="Item 2" style="text;strokeColor=none;fillColor=none;align=left;verticalAlign=middle;spacingLeft=4;spacingRight=4;overflow=hidden;points=[[0,0.5],[1,0.5]];portConstraint=eastwest;rotatable=0;" vertex="1" parent="Ydn4_hmh6kQKMiB_en1X-6">
          <mxGeometry y="60" width="140" height="30" as="geometry" />
        </mxCell>
        <mxCell id="Ydn4_hmh6kQKMiB_en1X-9" value="Item 3" style="text;strokeColor=none;fillColor=none;align=left;verticalAlign=middle;spacingLeft=4;spacingRight=4;overflow=hidden;points=[[0,0.5],[1,0.5]];portConstraint=eastwest;rotatable=0;" vertex="1" parent="Ydn4_hmh6kQKMiB_en1X-6">
          <mxGeometry y="90" width="140" height="30" as="geometry" />
        </mxCell>
        <mxCell id="Ydn4_hmh6kQKMiB_en1X-71" style="edgeStyle=orthogonalEdgeStyle;rounded=0;orthogonalLoop=1;jettySize=auto;html=1;endArrow=none;endFill=0;" edge="1" parent="Ydn4_hmh6kQKMiB_en1X-1" source="Ydn4_hmh6kQKMiB_en1X-10" target="Ydn4_hmh6kQKMiB_en1X-25">
          <mxGeometry relative="1" as="geometry" />
        </mxCell>
        <mxCell id="Ydn4_hmh6kQKMiB_en1X-10" value="Staff" style="swimlane;fontStyle=0;childLayout=stackLayout;horizontal=1;startSize=30;horizontalStack=0;resizeParent=1;resizeParentMax=0;resizeLast=0;collapsible=1;marginBottom=0;fillColor=none;" vertex="1" parent="Ydn4_hmh6kQKMiB_en1X-1">
          <mxGeometry x="200" y="283" width="140" height="120" as="geometry" />
        </mxCell>
        <mxCell id="Ydn4_hmh6kQKMiB_en1X-11" value="Item 1" style="text;strokeColor=none;fillColor=none;align=left;verticalAlign=middle;spacingLeft=4;spacingRight=4;overflow=hidden;points=[[0,0.5],[1,0.5]];portConstraint=eastwest;rotatable=0;" vertex="1" parent="Ydn4_hmh6kQKMiB_en1X-10">
          <mxGeometry y="30" width="140" height="30" as="geometry" />
        </mxCell>
        <mxCell id="Ydn4_hmh6kQKMiB_en1X-12" value="Item 2" style="text;strokeColor=none;fillColor=none;align=left;verticalAlign=middle;spacingLeft=4;spacingRight=4;overflow=hidden;points=[[0,0.5],[1,0.5]];portConstraint=eastwest;rotatable=0;" vertex="1" parent="Ydn4_hmh6kQKMiB_en1X-10">
          <mxGeometry y="60" width="140" height="30" as="geometry" />
        </mxCell>
        <mxCell id="Ydn4_hmh6kQKMiB_en1X-13" value="Item 3" style="text;strokeColor=none;fillColor=none;align=left;verticalAlign=middle;spacingLeft=4;spacingRight=4;overflow=hidden;points=[[0,0.5],[1,0.5]];portConstraint=eastwest;rotatable=0;" vertex="1" parent="Ydn4_hmh6kQKMiB_en1X-10">
          <mxGeometry y="90" width="140" height="30" as="geometry" />
        </mxCell>
        <mxCell id="Ydn4_hmh6kQKMiB_en1X-16" value="{optional, or}" style="text;html=1;strokeColor=none;fillColor=none;align=center;verticalAlign=middle;whiteSpace=wrap;rounded=0;" vertex="1" parent="Ydn4_hmh6kQKMiB_en1X-1">
          <mxGeometry x="90" y="213" width="70" height="30" as="geometry" />
        </mxCell>
        <mxCell id="Ydn4_hmh6kQKMiB_en1X-23" style="edgeStyle=orthogonalEdgeStyle;rounded=0;orthogonalLoop=1;jettySize=auto;html=1;endArrow=none;endFill=0;" edge="1" parent="Ydn4_hmh6kQKMiB_en1X-1" source="Ydn4_hmh6kQKMiB_en1X-17" target="Ydn4_hmh6kQKMiB_en1X-21">
          <mxGeometry relative="1" as="geometry" />
        </mxCell>
        <mxCell id="Ydn4_hmh6kQKMiB_en1X-28" style="edgeStyle=orthogonalEdgeStyle;rounded=0;orthogonalLoop=1;jettySize=auto;html=1;entryX=0.5;entryY=0;entryDx=0;entryDy=0;endArrow=none;endFill=0;" edge="1" parent="Ydn4_hmh6kQKMiB_en1X-1" source="Ydn4_hmh6kQKMiB_en1X-17" target="Ydn4_hmh6kQKMiB_en1X-24">
          <mxGeometry relative="1" as="geometry" />
        </mxCell>
        <mxCell id="Ydn4_hmh6kQKMiB_en1X-17" value="recommends" style="rhombus;whiteSpace=wrap;html=1;fillColor=none;" vertex="1" parent="Ydn4_hmh6kQKMiB_en1X-1">
          <mxGeometry x="400" y="118" width="90" height="80" as="geometry" />
        </mxCell>
        <mxCell id="Ydn4_hmh6kQKMiB_en1X-18" style="edgeStyle=orthogonalEdgeStyle;rounded=0;orthogonalLoop=1;jettySize=auto;html=1;endArrow=none;endFill=0;" edge="1" parent="Ydn4_hmh6kQKMiB_en1X-1" source="Ydn4_hmh6kQKMiB_en1X-4" target="Ydn4_hmh6kQKMiB_en1X-17">
          <mxGeometry relative="1" as="geometry" />
        </mxCell>
        <mxCell id="Ydn4_hmh6kQKMiB_en1X-19" value="Textbook" style="swimlane;fontStyle=0;childLayout=stackLayout;horizontal=1;startSize=30;horizontalStack=0;resizeParent=1;resizeParentMax=0;resizeLast=0;collapsible=1;marginBottom=0;fillColor=none;" vertex="1" parent="Ydn4_hmh6kQKMiB_en1X-1">
          <mxGeometry x="640" y="83" width="140" height="120" as="geometry" />
        </mxCell>
        <mxCell id="Ydn4_hmh6kQKMiB_en1X-20" value="Item 1" style="text;strokeColor=none;fillColor=none;align=left;verticalAlign=middle;spacingLeft=4;spacingRight=4;overflow=hidden;points=[[0,0.5],[1,0.5]];portConstraint=eastwest;rotatable=0;" vertex="1" parent="Ydn4_hmh6kQKMiB_en1X-19">
          <mxGeometry y="30" width="140" height="30" as="geometry" />
        </mxCell>
        <mxCell id="Ydn4_hmh6kQKMiB_en1X-21" value="Item 2" style="text;strokeColor=none;fillColor=none;align=left;verticalAlign=middle;spacingLeft=4;spacingRight=4;overflow=hidden;points=[[0,0.5],[1,0.5]];portConstraint=eastwest;rotatable=0;" vertex="1" parent="Ydn4_hmh6kQKMiB_en1X-19">
          <mxGeometry y="60" width="140" height="30" as="geometry" />
        </mxCell>
        <mxCell id="Ydn4_hmh6kQKMiB_en1X-22" value="Item 3" style="text;strokeColor=none;fillColor=none;align=left;verticalAlign=middle;spacingLeft=4;spacingRight=4;overflow=hidden;points=[[0,0.5],[1,0.5]];portConstraint=eastwest;rotatable=0;" vertex="1" parent="Ydn4_hmh6kQKMiB_en1X-19">
          <mxGeometry y="90" width="140" height="30" as="geometry" />
        </mxCell>
        <mxCell id="Ydn4_hmh6kQKMiB_en1X-24" value="Module" style="swimlane;fontStyle=0;childLayout=stackLayout;horizontal=1;startSize=30;horizontalStack=0;resizeParent=1;resizeParentMax=0;resizeLast=0;collapsible=1;marginBottom=0;fillColor=none;" vertex="1" parent="Ydn4_hmh6kQKMiB_en1X-1">
          <mxGeometry x="375" y="443" width="140" height="120" as="geometry" />
        </mxCell>
        <mxCell id="Ydn4_hmh6kQKMiB_en1X-25" value="Item 1" style="text;strokeColor=none;fillColor=none;align=left;verticalAlign=middle;spacingLeft=4;spacingRight=4;overflow=hidden;points=[[0,0.5],[1,0.5]];portConstraint=eastwest;rotatable=0;" vertex="1" parent="Ydn4_hmh6kQKMiB_en1X-24">
          <mxGeometry y="30" width="140" height="30" as="geometry" />
        </mxCell>
        <mxCell id="Ydn4_hmh6kQKMiB_en1X-26" value="Item 2" style="text;strokeColor=none;fillColor=none;align=left;verticalAlign=middle;spacingLeft=4;spacingRight=4;overflow=hidden;points=[[0,0.5],[1,0.5]];portConstraint=eastwest;rotatable=0;" vertex="1" parent="Ydn4_hmh6kQKMiB_en1X-24">
          <mxGeometry y="60" width="140" height="30" as="geometry" />
        </mxCell>
        <mxCell id="Ydn4_hmh6kQKMiB_en1X-27" value="Item 3" style="text;strokeColor=none;fillColor=none;align=left;verticalAlign=middle;spacingLeft=4;spacingRight=4;overflow=hidden;points=[[0,0.5],[1,0.5]];portConstraint=eastwest;rotatable=0;" vertex="1" parent="Ydn4_hmh6kQKMiB_en1X-24">
          <mxGeometry y="90" width="140" height="30" as="geometry" />
        </mxCell>
        <mxCell id="Ydn4_hmh6kQKMiB_en1X-30" value="Student" style="swimlane;fontStyle=0;childLayout=stackLayout;horizontal=1;startSize=30;horizontalStack=0;resizeParent=1;resizeParentMax=0;resizeLast=0;collapsible=1;marginBottom=0;fillColor=none;" vertex="1" parent="Ydn4_hmh6kQKMiB_en1X-1">
          <mxGeometry x="640" y="603" width="140" height="120" as="geometry" />
        </mxCell>
        <mxCell id="Ydn4_hmh6kQKMiB_en1X-31" value="Item 1" style="text;strokeColor=none;fillColor=none;align=left;verticalAlign=middle;spacingLeft=4;spacingRight=4;overflow=hidden;points=[[0,0.5],[1,0.5]];portConstraint=eastwest;rotatable=0;" vertex="1" parent="Ydn4_hmh6kQKMiB_en1X-30">
          <mxGeometry y="30" width="140" height="30" as="geometry" />
        </mxCell>
        <mxCell id="Ydn4_hmh6kQKMiB_en1X-32" value="Item 2" style="text;strokeColor=none;fillColor=none;align=left;verticalAlign=middle;spacingLeft=4;spacingRight=4;overflow=hidden;points=[[0,0.5],[1,0.5]];portConstraint=eastwest;rotatable=0;" vertex="1" parent="Ydn4_hmh6kQKMiB_en1X-30">
          <mxGeometry y="60" width="140" height="30" as="geometry" />
        </mxCell>
        <mxCell id="Ydn4_hmh6kQKMiB_en1X-33" value="Item 3" style="text;strokeColor=none;fillColor=none;align=left;verticalAlign=middle;spacingLeft=4;spacingRight=4;overflow=hidden;points=[[0,0.5],[1,0.5]];portConstraint=eastwest;rotatable=0;" vertex="1" parent="Ydn4_hmh6kQKMiB_en1X-30">
          <mxGeometry y="90" width="140" height="30" as="geometry" />
        </mxCell>
        <mxCell id="Ydn4_hmh6kQKMiB_en1X-62" style="edgeStyle=orthogonalEdgeStyle;rounded=0;orthogonalLoop=1;jettySize=auto;html=1;entryX=0;entryY=0.5;entryDx=0;entryDy=0;endArrow=none;endFill=0;" edge="1" parent="Ydn4_hmh6kQKMiB_en1X-1" source="Ydn4_hmh6kQKMiB_en1X-34" target="Ydn4_hmh6kQKMiB_en1X-27">
          <mxGeometry relative="1" as="geometry" />
        </mxCell>
        <mxCell id="Ydn4_hmh6kQKMiB_en1X-67" style="edgeStyle=orthogonalEdgeStyle;rounded=0;orthogonalLoop=1;jettySize=auto;html=1;exitX=0.25;exitY=0;exitDx=0;exitDy=0;endArrow=none;endFill=0;entryX=0.171;entryY=1.033;entryDx=0;entryDy=0;entryPerimeter=0;" edge="1" parent="Ydn4_hmh6kQKMiB_en1X-1" source="Ydn4_hmh6kQKMiB_en1X-34" target="Ydn4_hmh6kQKMiB_en1X-13">
          <mxGeometry relative="1" as="geometry" />
        </mxCell>
        <mxCell id="Ydn4_hmh6kQKMiB_en1X-34" value="Course" style="swimlane;fontStyle=0;childLayout=stackLayout;horizontal=1;startSize=30;horizontalStack=0;resizeParent=1;resizeParentMax=0;resizeLast=0;collapsible=1;marginBottom=0;fillColor=none;" vertex="1" parent="Ydn4_hmh6kQKMiB_en1X-1">
          <mxGeometry x="120" y="603" width="140" height="120" as="geometry" />
        </mxCell>
        <mxCell id="Ydn4_hmh6kQKMiB_en1X-35" value="Item 1" style="text;strokeColor=none;fillColor=none;align=left;verticalAlign=middle;spacingLeft=4;spacingRight=4;overflow=hidden;points=[[0,0.5],[1,0.5]];portConstraint=eastwest;rotatable=0;" vertex="1" parent="Ydn4_hmh6kQKMiB_en1X-34">
          <mxGeometry y="30" width="140" height="30" as="geometry" />
        </mxCell>
        <mxCell id="Ydn4_hmh6kQKMiB_en1X-36" value="Item 2" style="text;strokeColor=none;fillColor=none;align=left;verticalAlign=middle;spacingLeft=4;spacingRight=4;overflow=hidden;points=[[0,0.5],[1,0.5]];portConstraint=eastwest;rotatable=0;" vertex="1" parent="Ydn4_hmh6kQKMiB_en1X-34">
          <mxGeometry y="60" width="140" height="30" as="geometry" />
        </mxCell>
        <mxCell id="Ydn4_hmh6kQKMiB_en1X-37" value="Item 3" style="text;strokeColor=none;fillColor=none;align=left;verticalAlign=middle;spacingLeft=4;spacingRight=4;overflow=hidden;points=[[0,0.5],[1,0.5]];portConstraint=eastwest;rotatable=0;" vertex="1" parent="Ydn4_hmh6kQKMiB_en1X-34">
          <mxGeometry y="90" width="140" height="30" as="geometry" />
        </mxCell>
        <mxCell id="Ydn4_hmh6kQKMiB_en1X-39" value="mentors" style="text;html=1;strokeColor=none;fillColor=none;align=center;verticalAlign=middle;whiteSpace=wrap;rounded=0;" vertex="1" parent="Ydn4_hmh6kQKMiB_en1X-1">
          <mxGeometry x="100" y="10" width="60" height="30" as="geometry" />
        </mxCell>
        <mxCell id="Ydn4_hmh6kQKMiB_en1X-41" value="" style="triangle;whiteSpace=wrap;html=1;fillColor=#000000;direction=west;" vertex="1" parent="Ydn4_hmh6kQKMiB_en1X-1">
          <mxGeometry x="80" y="15" width="20" height="20" as="geometry" />
        </mxCell>
        <mxCell id="Ydn4_hmh6kQKMiB_en1X-42" value="0..1" style="text;html=1;strokeColor=none;fillColor=none;align=center;verticalAlign=middle;whiteSpace=wrap;rounded=0;" vertex="1" parent="Ydn4_hmh6kQKMiB_en1X-1">
          <mxGeometry x="130" y="53" width="60" height="30" as="geometry" />
        </mxCell>
        <mxCell id="Ydn4_hmh6kQKMiB_en1X-47" value="0..*" style="text;html=1;strokeColor=none;fillColor=none;align=center;verticalAlign=middle;whiteSpace=wrap;rounded=0;" vertex="1" parent="Ydn4_hmh6kQKMiB_en1X-1">
          <mxGeometry x="67" y="100" width="60" height="30" as="geometry" />
        </mxCell>
        <mxCell id="Ydn4_hmh6kQKMiB_en1X-48" value="1..*" style="text;html=1;strokeColor=none;fillColor=none;align=center;verticalAlign=middle;whiteSpace=wrap;rounded=0;" vertex="1" parent="Ydn4_hmh6kQKMiB_en1X-1">
          <mxGeometry x="250" y="128" width="60" height="30" as="geometry" />
        </mxCell>
        <mxCell id="Ydn4_hmh6kQKMiB_en1X-49" value="1..*" style="text;html=1;strokeColor=none;fillColor=none;align=center;verticalAlign=middle;whiteSpace=wrap;rounded=0;" vertex="1" parent="Ydn4_hmh6kQKMiB_en1X-1">
          <mxGeometry x="580" y="130" width="60" height="30" as="geometry" />
        </mxCell>
        <mxCell id="Ydn4_hmh6kQKMiB_en1X-51" value="1..*" style="text;html=1;strokeColor=none;fillColor=none;align=center;verticalAlign=middle;whiteSpace=wrap;rounded=0;" vertex="1" parent="Ydn4_hmh6kQKMiB_en1X-1">
          <mxGeometry x="430" y="413" width="60" height="30" as="geometry" />
        </mxCell>
        <mxCell id="Ydn4_hmh6kQKMiB_en1X-52" style="edgeStyle=orthogonalEdgeStyle;rounded=0;orthogonalLoop=1;jettySize=auto;html=1;endArrow=none;endFill=0;" edge="1" parent="Ydn4_hmh6kQKMiB_en1X-1" source="Ydn4_hmh6kQKMiB_en1X-25" target="Ydn4_hmh6kQKMiB_en1X-30">
          <mxGeometry relative="1" as="geometry" />
        </mxCell>
        <mxCell id="Ydn4_hmh6kQKMiB_en1X-53" value="manages" style="text;html=1;strokeColor=none;fillColor=none;align=center;verticalAlign=middle;whiteSpace=wrap;rounded=0;" vertex="1" parent="Ydn4_hmh6kQKMiB_en1X-1">
          <mxGeometry x="154" y="500" width="60" height="30" as="geometry" />
        </mxCell>
        <mxCell id="Ydn4_hmh6kQKMiB_en1X-54" value="" style="triangle;whiteSpace=wrap;html=1;fillColor=#000000;direction=south;" vertex="1" parent="Ydn4_hmh6kQKMiB_en1X-1">
          <mxGeometry x="169" y="530" width="20" height="20" as="geometry" />
        </mxCell>
        <mxCell id="Ydn4_hmh6kQKMiB_en1X-55" value="0..*" style="text;html=1;strokeColor=none;fillColor=none;align=center;verticalAlign=middle;whiteSpace=wrap;rounded=0;" vertex="1" parent="Ydn4_hmh6kQKMiB_en1X-1">
          <mxGeometry x="507" y="490" width="60" height="30" as="geometry" />
        </mxCell>
        <mxCell id="Ydn4_hmh6kQKMiB_en1X-56" value="0..*" style="text;html=1;strokeColor=none;fillColor=none;align=center;verticalAlign=middle;whiteSpace=wrap;rounded=0;" vertex="1" parent="Ydn4_hmh6kQKMiB_en1X-1">
          <mxGeometry x="660" y="573" width="60" height="30" as="geometry" />
        </mxCell>
        <mxCell id="Ydn4_hmh6kQKMiB_en1X-57" style="edgeStyle=orthogonalEdgeStyle;rounded=0;orthogonalLoop=1;jettySize=auto;html=1;endArrow=none;endFill=0;" edge="1" parent="Ydn4_hmh6kQKMiB_en1X-1" source="Ydn4_hmh6kQKMiB_en1X-32" target="Ydn4_hmh6kQKMiB_en1X-36">
          <mxGeometry relative="1" as="geometry" />
        </mxCell>
        <mxCell id="Ydn4_hmh6kQKMiB_en1X-58" value="is registered on" style="text;html=1;strokeColor=none;fillColor=none;align=center;verticalAlign=middle;whiteSpace=wrap;rounded=0;" vertex="1" parent="Ydn4_hmh6kQKMiB_en1X-1">
          <mxGeometry x="420" y="648" width="100" height="30" as="geometry" />
        </mxCell>
        <mxCell id="Ydn4_hmh6kQKMiB_en1X-59" value="" style="triangle;whiteSpace=wrap;html=1;fillColor=#000000;direction=west;" vertex="1" parent="Ydn4_hmh6kQKMiB_en1X-1">
          <mxGeometry x="400" y="653" width="20" height="20" as="geometry" />
        </mxCell>
        <mxCell id="Ydn4_hmh6kQKMiB_en1X-60" value="0..*" style="text;html=1;strokeColor=none;fillColor=none;align=center;verticalAlign=middle;whiteSpace=wrap;rounded=0;" vertex="1" parent="Ydn4_hmh6kQKMiB_en1X-1">
          <mxGeometry x="590" y="678" width="60" height="30" as="geometry" />
        </mxCell>
        <mxCell id="Ydn4_hmh6kQKMiB_en1X-61" value="0..1" style="text;html=1;strokeColor=none;fillColor=none;align=center;verticalAlign=middle;whiteSpace=wrap;rounded=0;" vertex="1" parent="Ydn4_hmh6kQKMiB_en1X-1">
          <mxGeometry x="250" y="680" width="60" height="30" as="geometry" />
        </mxCell>
        <mxCell id="Ydn4_hmh6kQKMiB_en1X-63" value="is registered on" style="text;html=1;strokeColor=none;fillColor=none;align=center;verticalAlign=middle;whiteSpace=wrap;rounded=0;" vertex="1" parent="Ydn4_hmh6kQKMiB_en1X-1">
          <mxGeometry x="214" y="520" width="100" height="30" as="geometry" />
        </mxCell>
        <mxCell id="Ydn4_hmh6kQKMiB_en1X-64" value="" style="triangle;whiteSpace=wrap;html=1;fillColor=#000000;direction=east;" vertex="1" parent="Ydn4_hmh6kQKMiB_en1X-1">
          <mxGeometry x="314" y="525" width="20" height="20" as="geometry" />
        </mxCell>
        <mxCell id="Ydn4_hmh6kQKMiB_en1X-65" value="1..*" style="text;html=1;strokeColor=none;fillColor=none;align=center;verticalAlign=middle;whiteSpace=wrap;rounded=0;" vertex="1" parent="Ydn4_hmh6kQKMiB_en1X-1">
          <mxGeometry x="320" y="545" width="60" height="30" as="geometry" />
        </mxCell>
        <mxCell id="Ydn4_hmh6kQKMiB_en1X-66" value="0..1" style="text;html=1;strokeColor=none;fillColor=none;align=center;verticalAlign=middle;whiteSpace=wrap;rounded=0;" vertex="1" parent="Ydn4_hmh6kQKMiB_en1X-1">
          <mxGeometry x="180" y="575" width="60" height="30" as="geometry" />
        </mxCell>
        <mxCell id="Ydn4_hmh6kQKMiB_en1X-68" value="0..1" style="text;html=1;strokeColor=none;fillColor=none;align=center;verticalAlign=middle;whiteSpace=wrap;rounded=0;" vertex="1" parent="Ydn4_hmh6kQKMiB_en1X-1">
          <mxGeometry x="108" y="575" width="60" height="30" as="geometry" />
        </mxCell>
        <mxCell id="Ydn4_hmh6kQKMiB_en1X-69" value="1..1" style="text;html=1;strokeColor=none;fillColor=none;align=center;verticalAlign=middle;whiteSpace=wrap;rounded=0;" vertex="1" parent="Ydn4_hmh6kQKMiB_en1X-1">
          <mxGeometry x="180" y="403" width="60" height="30" as="geometry" />
        </mxCell>
        <mxCell id="Ydn4_hmh6kQKMiB_en1X-72" value="leads" style="text;html=1;strokeColor=none;fillColor=none;align=center;verticalAlign=middle;whiteSpace=wrap;rounded=0;" vertex="1" parent="Ydn4_hmh6kQKMiB_en1X-1">
          <mxGeometry x="290" y="455" width="50" height="30" as="geometry" />
        </mxCell>
        <mxCell id="Ydn4_hmh6kQKMiB_en1X-73" value="" style="triangle;whiteSpace=wrap;html=1;fillColor=#000000;direction=east;" vertex="1" parent="Ydn4_hmh6kQKMiB_en1X-1">
          <mxGeometry x="334" y="460" width="20" height="20" as="geometry" />
        </mxCell>
        <mxCell id="Ydn4_hmh6kQKMiB_en1X-74" value="1..1" style="text;html=1;strokeColor=none;fillColor=none;align=center;verticalAlign=middle;whiteSpace=wrap;rounded=0;" vertex="1" parent="Ydn4_hmh6kQKMiB_en1X-1">
          <mxGeometry x="254" y="403" width="60" height="30" as="geometry" />
        </mxCell>
        <mxCell id="Ydn4_hmh6kQKMiB_en1X-75" value="0..*" style="text;html=1;strokeColor=none;fillColor=none;align=center;verticalAlign=middle;whiteSpace=wrap;rounded=0;" vertex="1" parent="Ydn4_hmh6kQKMiB_en1X-1">
          <mxGeometry x="329" y="481" width="60" height="30" as="geometry" />
        </mxCell>
        <mxCell id="Ydn4_hmh6kQKMiB_en1X-76" value="takes" style="text;html=1;strokeColor=none;fillColor=none;align=center;verticalAlign=middle;whiteSpace=wrap;rounded=0;" vertex="1" parent="Ydn4_hmh6kQKMiB_en1X-1">
          <mxGeometry x="603" y="460" width="53" height="30" as="geometry" />
        </mxCell>
        <mxCell id="Ydn4_hmh6kQKMiB_en1X-77" value="" style="triangle;whiteSpace=wrap;html=1;fillColor=#000000;direction=west;" vertex="1" parent="Ydn4_hmh6kQKMiB_en1X-1">
          <mxGeometry x="583" y="465" width="20" height="20" as="geometry" />
        </mxCell>
        <mxCell id="Ydn4_hmh6kQKMiB_en1X-78" style="edgeStyle=orthogonalEdgeStyle;rounded=0;orthogonalLoop=1;jettySize=auto;html=1;exitX=1;exitY=0.5;exitDx=0;exitDy=0;entryX=0.25;entryY=0;entryDx=0;entryDy=0;endArrow=none;endFill=0;" edge="1" parent="Ydn4_hmh6kQKMiB_en1X-1" source="Ydn4_hmh6kQKMiB_en1X-5" target="Ydn4_hmh6kQKMiB_en1X-24">
          <mxGeometry relative="1" as="geometry" />
        </mxCell>
        <mxCell id="Ydn4_hmh6kQKMiB_en1X-79" value="teaches on" style="text;html=1;strokeColor=none;fillColor=none;align=center;verticalAlign=middle;whiteSpace=wrap;rounded=0;" vertex="1" parent="Ydn4_hmh6kQKMiB_en1X-1">
          <mxGeometry x="285" y="190" width="80" height="30" as="geometry" />
        </mxCell>
        <mxCell id="Ydn4_hmh6kQKMiB_en1X-80" value="" style="triangle;whiteSpace=wrap;html=1;fillColor=#000000;direction=east;" vertex="1" parent="Ydn4_hmh6kQKMiB_en1X-1">
          <mxGeometry x="359" y="195" width="20" height="20" as="geometry" />
        </mxCell>
        <mxCell id="Ydn4_hmh6kQKMiB_en1X-81" value="0..*" style="text;html=1;strokeColor=none;fillColor=none;align=center;verticalAlign=middle;whiteSpace=wrap;rounded=0;" vertex="1" parent="Ydn4_hmh6kQKMiB_en1X-1">
          <mxGeometry x="395" y="413" width="60" height="30" as="geometry" />
        </mxCell>
        <mxCell id="Ydn4_hmh6kQKMiB_en1X-82" value="0..*" style="text;html=1;strokeColor=none;fillColor=none;align=center;verticalAlign=middle;whiteSpace=wrap;rounded=0;" vertex="1" parent="Ydn4_hmh6kQKMiB_en1X-1">
          <mxGeometry x="240" y="165" width="60" height="30" as="geometry" />
        </mxCell>
        <mxCell id="Ydn4_hmh6kQKMiB_en1X-156" value="Question" style="text;html=1;strokeColor=none;fillColor=none;align=center;verticalAlign=middle;whiteSpace=wrap;rounded=0;" vertex="1" parent="Ydn4_hmh6kQKMiB_en1X-1">
          <mxGeometry x="389" y="10" width="60" height="30" as="geometry" />
        </mxCell>
        <mxCell id="Ydn4_hmh6kQKMiB_en1X-157" value="Solution" style="text;html=1;strokeColor=none;fillColor=none;align=center;verticalAlign=middle;whiteSpace=wrap;rounded=0;" vertex="1" parent="Ydn4_hmh6kQKMiB_en1X-1">
          <mxGeometry x="425" y="820" width="60" height="30" as="geometry" />
        </mxCell>
        <mxCell id="Ydn4_hmh6kQKMiB_en1X-159" value="Staff" style="swimlane;fontStyle=0;childLayout=stackLayout;horizontal=1;startSize=30;horizontalStack=0;resizeParent=1;resizeParentMax=0;resizeLast=0;collapsible=1;marginBottom=0;fillColor=none;" vertex="1" parent="Ydn4_hmh6kQKMiB_en1X-1">
          <mxGeometry x="163" y="960" width="140" height="120" as="geometry" />
        </mxCell>
        <mxCell id="Ydn4_hmh6kQKMiB_en1X-160" value="Item 1" style="text;strokeColor=none;fillColor=none;align=left;verticalAlign=middle;spacingLeft=4;spacingRight=4;overflow=hidden;points=[[0,0.5],[1,0.5]];portConstraint=eastwest;rotatable=0;" vertex="1" parent="Ydn4_hmh6kQKMiB_en1X-159">
          <mxGeometry y="30" width="140" height="30" as="geometry" />
        </mxCell>
        <mxCell id="Ydn4_hmh6kQKMiB_en1X-161" value="Item 2" style="text;strokeColor=none;fillColor=none;align=left;verticalAlign=middle;spacingLeft=4;spacingRight=4;overflow=hidden;points=[[0,0.5],[1,0.5]];portConstraint=eastwest;rotatable=0;" vertex="1" parent="Ydn4_hmh6kQKMiB_en1X-159">
          <mxGeometry y="60" width="140" height="30" as="geometry" />
        </mxCell>
        <mxCell id="Ydn4_hmh6kQKMiB_en1X-162" value="Item 3" style="text;strokeColor=none;fillColor=none;align=left;verticalAlign=middle;spacingLeft=4;spacingRight=4;overflow=hidden;points=[[0,0.5],[1,0.5]];portConstraint=eastwest;rotatable=0;" vertex="1" parent="Ydn4_hmh6kQKMiB_en1X-159">
          <mxGeometry y="90" width="140" height="30" as="geometry" />
        </mxCell>
        <mxCell id="Ydn4_hmh6kQKMiB_en1X-163" value="V_Lecturer" style="swimlane;fontStyle=0;childLayout=stackLayout;horizontal=1;startSize=30;horizontalStack=0;resizeParent=1;resizeParentMax=0;resizeLast=0;collapsible=1;marginBottom=0;fillColor=none;" vertex="1" parent="Ydn4_hmh6kQKMiB_en1X-1">
          <mxGeometry x="40" y="1160" width="140" height="120" as="geometry" />
        </mxCell>
        <mxCell id="Ydn4_hmh6kQKMiB_en1X-164" value="staffNo {PK} {FK}" style="text;strokeColor=none;fillColor=none;align=left;verticalAlign=middle;spacingLeft=4;spacingRight=4;overflow=hidden;points=[[0,0.5],[1,0.5]];portConstraint=eastwest;rotatable=0;" vertex="1" parent="Ydn4_hmh6kQKMiB_en1X-163">
          <mxGeometry y="30" width="140" height="30" as="geometry" />
        </mxCell>
        <mxCell id="Ydn4_hmh6kQKMiB_en1X-165" value="Item 2" style="text;strokeColor=none;fillColor=none;align=left;verticalAlign=middle;spacingLeft=4;spacingRight=4;overflow=hidden;points=[[0,0.5],[1,0.5]];portConstraint=eastwest;rotatable=0;" vertex="1" parent="Ydn4_hmh6kQKMiB_en1X-163">
          <mxGeometry y="60" width="140" height="30" as="geometry" />
        </mxCell>
        <mxCell id="Ydn4_hmh6kQKMiB_en1X-166" value="Item 3" style="text;strokeColor=none;fillColor=none;align=left;verticalAlign=middle;spacingLeft=4;spacingRight=4;overflow=hidden;points=[[0,0.5],[1,0.5]];portConstraint=eastwest;rotatable=0;" vertex="1" parent="Ydn4_hmh6kQKMiB_en1X-163">
          <mxGeometry y="90" width="140" height="30" as="geometry" />
        </mxCell>
        <mxCell id="Ydn4_hmh6kQKMiB_en1X-167" value="FT_Lecturer" style="swimlane;fontStyle=0;childLayout=stackLayout;horizontal=1;startSize=30;horizontalStack=0;resizeParent=1;resizeParentMax=0;resizeLast=0;collapsible=1;marginBottom=0;fillColor=none;" vertex="1" parent="Ydn4_hmh6kQKMiB_en1X-1">
          <mxGeometry x="280" y="1160" width="140" height="120" as="geometry" />
        </mxCell>
        <mxCell id="Ydn4_hmh6kQKMiB_en1X-168" value="staffNo {PK} {FK}" style="text;strokeColor=none;fillColor=none;align=left;verticalAlign=middle;spacingLeft=4;spacingRight=4;overflow=hidden;points=[[0,0.5],[1,0.5]];portConstraint=eastwest;rotatable=0;" vertex="1" parent="Ydn4_hmh6kQKMiB_en1X-167">
          <mxGeometry y="30" width="140" height="30" as="geometry" />
        </mxCell>
        <mxCell id="Ydn4_hmh6kQKMiB_en1X-169" value="Item 2" style="text;strokeColor=none;fillColor=none;align=left;verticalAlign=middle;spacingLeft=4;spacingRight=4;overflow=hidden;points=[[0,0.5],[1,0.5]];portConstraint=eastwest;rotatable=0;" vertex="1" parent="Ydn4_hmh6kQKMiB_en1X-167">
          <mxGeometry y="60" width="140" height="30" as="geometry" />
        </mxCell>
        <mxCell id="Ydn4_hmh6kQKMiB_en1X-170" value="Item 3" style="text;strokeColor=none;fillColor=none;align=left;verticalAlign=middle;spacingLeft=4;spacingRight=4;overflow=hidden;points=[[0,0.5],[1,0.5]];portConstraint=eastwest;rotatable=0;" vertex="1" parent="Ydn4_hmh6kQKMiB_en1X-167">
          <mxGeometry y="90" width="140" height="30" as="geometry" />
        </mxCell>
        <mxCell id="Ydn4_hmh6kQKMiB_en1X-172" style="edgeStyle=orthogonalEdgeStyle;rounded=0;orthogonalLoop=1;jettySize=auto;html=1;entryX=0.55;entryY=0.017;entryDx=0;entryDy=0;entryPerimeter=0;endArrow=none;endFill=0;" edge="1" parent="Ydn4_hmh6kQKMiB_en1X-1" source="Ydn4_hmh6kQKMiB_en1X-161" target="Ydn4_hmh6kQKMiB_en1X-167">
          <mxGeometry relative="1" as="geometry" />
        </mxCell>
        <mxCell id="Ydn4_hmh6kQKMiB_en1X-173" style="edgeStyle=orthogonalEdgeStyle;rounded=0;orthogonalLoop=1;jettySize=auto;html=1;exitX=0;exitY=0.5;exitDx=0;exitDy=0;endArrow=none;endFill=0;" edge="1" parent="Ydn4_hmh6kQKMiB_en1X-1" source="Ydn4_hmh6kQKMiB_en1X-161" target="Ydn4_hmh6kQKMiB_en1X-163">
          <mxGeometry relative="1" as="geometry" />
        </mxCell>
        <mxCell id="Ydn4_hmh6kQKMiB_en1X-174" value="can be" style="text;html=1;strokeColor=none;fillColor=none;align=center;verticalAlign=middle;whiteSpace=wrap;rounded=0;" vertex="1" parent="Ydn4_hmh6kQKMiB_en1X-1">
          <mxGeometry x="50" y="1060" width="60" height="30" as="geometry" />
        </mxCell>
        <mxCell id="Ydn4_hmh6kQKMiB_en1X-175" value="" style="triangle;whiteSpace=wrap;html=1;fillColor=#000000;direction=south;" vertex="1" parent="Ydn4_hmh6kQKMiB_en1X-1">
          <mxGeometry x="65" y="1090" width="20" height="20" as="geometry" />
        </mxCell>
        <mxCell id="Ydn4_hmh6kQKMiB_en1X-176" value="can be" style="text;html=1;strokeColor=none;fillColor=none;align=center;verticalAlign=middle;whiteSpace=wrap;rounded=0;" vertex="1" parent="Ydn4_hmh6kQKMiB_en1X-1">
          <mxGeometry x="354" y="1090" width="60" height="30" as="geometry" />
        </mxCell>
        <mxCell id="Ydn4_hmh6kQKMiB_en1X-177" value="" style="triangle;whiteSpace=wrap;html=1;fillColor=#000000;direction=south;" vertex="1" parent="Ydn4_hmh6kQKMiB_en1X-1">
          <mxGeometry x="369" y="1120" width="20" height="20" as="geometry" />
        </mxCell>
        <mxCell id="Ydn4_hmh6kQKMiB_en1X-178" value="Recommendation" style="swimlane;fontStyle=0;childLayout=stackLayout;horizontal=1;startSize=30;horizontalStack=0;resizeParent=1;resizeParentMax=0;resizeLast=0;collapsible=1;marginBottom=0;fillColor=none;" vertex="1" parent="Ydn4_hmh6kQKMiB_en1X-1">
          <mxGeometry x="470" y="960" width="140" height="120" as="geometry" />
        </mxCell>
        <mxCell id="Ydn4_hmh6kQKMiB_en1X-179" value="Item 1" style="text;strokeColor=none;fillColor=none;align=left;verticalAlign=middle;spacingLeft=4;spacingRight=4;overflow=hidden;points=[[0,0.5],[1,0.5]];portConstraint=eastwest;rotatable=0;" vertex="1" parent="Ydn4_hmh6kQKMiB_en1X-178">
          <mxGeometry y="30" width="140" height="30" as="geometry" />
        </mxCell>
        <mxCell id="Ydn4_hmh6kQKMiB_en1X-180" value="Item 2" style="text;strokeColor=none;fillColor=none;align=left;verticalAlign=middle;spacingLeft=4;spacingRight=4;overflow=hidden;points=[[0,0.5],[1,0.5]];portConstraint=eastwest;rotatable=0;" vertex="1" parent="Ydn4_hmh6kQKMiB_en1X-178">
          <mxGeometry y="60" width="140" height="30" as="geometry" />
        </mxCell>
        <mxCell id="Ydn4_hmh6kQKMiB_en1X-181" value="Item 3" style="text;strokeColor=none;fillColor=none;align=left;verticalAlign=middle;spacingLeft=4;spacingRight=4;overflow=hidden;points=[[0,0.5],[1,0.5]];portConstraint=eastwest;rotatable=0;" vertex="1" parent="Ydn4_hmh6kQKMiB_en1X-178">
          <mxGeometry y="90" width="140" height="30" as="geometry" />
        </mxCell>
        <mxCell id="Ydn4_hmh6kQKMiB_en1X-182" value="Textbook" style="swimlane;fontStyle=0;childLayout=stackLayout;horizontal=1;startSize=30;horizontalStack=0;resizeParent=1;resizeParentMax=0;resizeLast=0;collapsible=1;marginBottom=0;fillColor=none;" vertex="1" parent="Ydn4_hmh6kQKMiB_en1X-1">
          <mxGeometry x="760" y="960" width="140" height="120" as="geometry" />
        </mxCell>
        <mxCell id="Ydn4_hmh6kQKMiB_en1X-183" value="Item 1" style="text;strokeColor=none;fillColor=none;align=left;verticalAlign=middle;spacingLeft=4;spacingRight=4;overflow=hidden;points=[[0,0.5],[1,0.5]];portConstraint=eastwest;rotatable=0;" vertex="1" parent="Ydn4_hmh6kQKMiB_en1X-182">
          <mxGeometry y="30" width="140" height="30" as="geometry" />
        </mxCell>
        <mxCell id="Ydn4_hmh6kQKMiB_en1X-184" value="Item 2" style="text;strokeColor=none;fillColor=none;align=left;verticalAlign=middle;spacingLeft=4;spacingRight=4;overflow=hidden;points=[[0,0.5],[1,0.5]];portConstraint=eastwest;rotatable=0;" vertex="1" parent="Ydn4_hmh6kQKMiB_en1X-182">
          <mxGeometry y="60" width="140" height="30" as="geometry" />
        </mxCell>
        <mxCell id="Ydn4_hmh6kQKMiB_en1X-185" value="Item 3" style="text;strokeColor=none;fillColor=none;align=left;verticalAlign=middle;spacingLeft=4;spacingRight=4;overflow=hidden;points=[[0,0.5],[1,0.5]];portConstraint=eastwest;rotatable=0;" vertex="1" parent="Ydn4_hmh6kQKMiB_en1X-182">
          <mxGeometry y="90" width="140" height="30" as="geometry" />
        </mxCell>
        <mxCell id="Ydn4_hmh6kQKMiB_en1X-186" style="edgeStyle=orthogonalEdgeStyle;rounded=0;orthogonalLoop=1;jettySize=auto;html=1;entryX=0;entryY=0.5;entryDx=0;entryDy=0;endArrow=none;endFill=0;" edge="1" parent="Ydn4_hmh6kQKMiB_en1X-1" source="Ydn4_hmh6kQKMiB_en1X-160" target="Ydn4_hmh6kQKMiB_en1X-179">
          <mxGeometry relative="1" as="geometry" />
        </mxCell>
        <mxCell id="Ydn4_hmh6kQKMiB_en1X-187" style="edgeStyle=orthogonalEdgeStyle;rounded=0;orthogonalLoop=1;jettySize=auto;html=1;entryX=0;entryY=0.5;entryDx=0;entryDy=0;endArrow=none;endFill=0;" edge="1" parent="Ydn4_hmh6kQKMiB_en1X-1" source="Ydn4_hmh6kQKMiB_en1X-179" target="Ydn4_hmh6kQKMiB_en1X-183">
          <mxGeometry relative="1" as="geometry" />
        </mxCell>
        <mxCell id="Ydn4_hmh6kQKMiB_en1X-192" style="edgeStyle=orthogonalEdgeStyle;rounded=0;orthogonalLoop=1;jettySize=auto;html=1;endArrow=none;endFill=0;" edge="1" parent="Ydn4_hmh6kQKMiB_en1X-1" source="Ydn4_hmh6kQKMiB_en1X-188" target="Ydn4_hmh6kQKMiB_en1X-178">
          <mxGeometry relative="1" as="geometry" />
        </mxCell>
        <mxCell id="Ydn4_hmh6kQKMiB_en1X-188" value="Module" style="swimlane;fontStyle=0;childLayout=stackLayout;horizontal=1;startSize=30;horizontalStack=0;resizeParent=1;resizeParentMax=0;resizeLast=0;collapsible=1;marginBottom=0;fillColor=none;" vertex="1" parent="Ydn4_hmh6kQKMiB_en1X-1">
          <mxGeometry x="470" y="1280" width="140" height="120" as="geometry" />
        </mxCell>
        <mxCell id="Ydn4_hmh6kQKMiB_en1X-189" value="Item 1" style="text;strokeColor=none;fillColor=none;align=left;verticalAlign=middle;spacingLeft=4;spacingRight=4;overflow=hidden;points=[[0,0.5],[1,0.5]];portConstraint=eastwest;rotatable=0;" vertex="1" parent="Ydn4_hmh6kQKMiB_en1X-188">
          <mxGeometry y="30" width="140" height="30" as="geometry" />
        </mxCell>
        <mxCell id="Ydn4_hmh6kQKMiB_en1X-190" value="courseId {PK}" style="text;strokeColor=none;fillColor=none;align=left;verticalAlign=middle;spacingLeft=4;spacingRight=4;overflow=hidden;points=[[0,0.5],[1,0.5]];portConstraint=eastwest;rotatable=0;" vertex="1" parent="Ydn4_hmh6kQKMiB_en1X-188">
          <mxGeometry y="60" width="140" height="30" as="geometry" />
        </mxCell>
        <mxCell id="Ydn4_hmh6kQKMiB_en1X-191" value="Item 3" style="text;strokeColor=none;fillColor=none;align=left;verticalAlign=middle;spacingLeft=4;spacingRight=4;overflow=hidden;points=[[0,0.5],[1,0.5]];portConstraint=eastwest;rotatable=0;" vertex="1" parent="Ydn4_hmh6kQKMiB_en1X-188">
          <mxGeometry y="90" width="140" height="30" as="geometry" />
        </mxCell>
        <mxCell id="Ydn4_hmh6kQKMiB_en1X-193" value="makes" style="text;html=1;strokeColor=none;fillColor=none;align=center;verticalAlign=middle;whiteSpace=wrap;rounded=0;" vertex="1" parent="Ydn4_hmh6kQKMiB_en1X-1">
          <mxGeometry x="340" y="975" width="60" height="30" as="geometry" />
        </mxCell>
        <mxCell id="Ydn4_hmh6kQKMiB_en1X-194" value="" style="triangle;whiteSpace=wrap;html=1;fillColor=#000000;direction=east;" vertex="1" parent="Ydn4_hmh6kQKMiB_en1X-1">
          <mxGeometry x="395" y="980" width="20" height="20" as="geometry" />
        </mxCell>
        <mxCell id="Ydn4_hmh6kQKMiB_en1X-195" value="consists of" style="text;html=1;strokeColor=none;fillColor=none;align=center;verticalAlign=middle;whiteSpace=wrap;rounded=0;" vertex="1" parent="Ydn4_hmh6kQKMiB_en1X-1">
          <mxGeometry x="663" y="975" width="77" height="30" as="geometry" />
        </mxCell>
        <mxCell id="Ydn4_hmh6kQKMiB_en1X-196" value="" style="triangle;whiteSpace=wrap;html=1;fillColor=#000000;direction=west;" vertex="1" parent="Ydn4_hmh6kQKMiB_en1X-1">
          <mxGeometry x="649" y="980" width="20" height="20" as="geometry" />
        </mxCell>
        <mxCell id="Ydn4_hmh6kQKMiB_en1X-197" value="1..*" style="text;html=1;strokeColor=none;fillColor=none;align=center;verticalAlign=middle;whiteSpace=wrap;rounded=0;" vertex="1" parent="Ydn4_hmh6kQKMiB_en1X-1">
          <mxGeometry x="420" y="1000" width="60" height="30" as="geometry" />
        </mxCell>
        <mxCell id="Ydn4_hmh6kQKMiB_en1X-198" value="1..*" style="text;html=1;strokeColor=none;fillColor=none;align=center;verticalAlign=middle;whiteSpace=wrap;rounded=0;" vertex="1" parent="Ydn4_hmh6kQKMiB_en1X-1">
          <mxGeometry x="596" y="1000" width="60" height="30" as="geometry" />
        </mxCell>
        <mxCell id="Ydn4_hmh6kQKMiB_en1X-199" value="1..*" style="text;html=1;strokeColor=none;fillColor=none;align=center;verticalAlign=middle;whiteSpace=wrap;rounded=0;" vertex="1" parent="Ydn4_hmh6kQKMiB_en1X-1">
          <mxGeometry x="530" y="1080" width="60" height="30" as="geometry" />
        </mxCell>
        <mxCell id="Ydn4_hmh6kQKMiB_en1X-200" value="has" style="text;html=1;strokeColor=none;fillColor=none;align=center;verticalAlign=middle;whiteSpace=wrap;rounded=0;" vertex="1" parent="Ydn4_hmh6kQKMiB_en1X-1">
          <mxGeometry x="491" y="1170" width="60" height="30" as="geometry" />
        </mxCell>
        <mxCell id="Ydn4_hmh6kQKMiB_en1X-201" value="" style="triangle;whiteSpace=wrap;html=1;fillColor=#000000;direction=north;" vertex="1" parent="Ydn4_hmh6kQKMiB_en1X-1">
          <mxGeometry x="511" y="1150" width="20" height="20" as="geometry" />
        </mxCell>
        <mxCell id="Ydn4_hmh6kQKMiB_en1X-202" value="1..1" style="text;html=1;strokeColor=none;fillColor=none;align=center;verticalAlign=middle;whiteSpace=wrap;rounded=0;" vertex="1" parent="Ydn4_hmh6kQKMiB_en1X-1">
          <mxGeometry x="290" y="1000" width="60" height="30" as="geometry" />
        </mxCell>
        <mxCell id="Ydn4_hmh6kQKMiB_en1X-203" value="1..1" style="text;html=1;strokeColor=none;fillColor=none;align=center;verticalAlign=middle;whiteSpace=wrap;rounded=0;" vertex="1" parent="Ydn4_hmh6kQKMiB_en1X-1">
          <mxGeometry x="713" y="1005" width="60" height="30" as="geometry" />
        </mxCell>
        <mxCell id="Ydn4_hmh6kQKMiB_en1X-204" value="1..1" style="text;html=1;strokeColor=none;fillColor=none;align=center;verticalAlign=middle;whiteSpace=wrap;rounded=0;" vertex="1" parent="Ydn4_hmh6kQKMiB_en1X-1">
          <mxGeometry x="531" y="1250" width="60" height="30" as="geometry" />
        </mxCell>
        <mxCell id="Ydn4_hmh6kQKMiB_en1X-210" style="edgeStyle=orthogonalEdgeStyle;rounded=0;orthogonalLoop=1;jettySize=auto;html=1;exitX=0.5;exitY=0;exitDx=0;exitDy=0;entryX=0.25;entryY=1;entryDx=0;entryDy=0;endArrow=none;endFill=0;" edge="1" parent="Ydn4_hmh6kQKMiB_en1X-1" source="Ydn4_hmh6kQKMiB_en1X-205" target="Ydn4_hmh6kQKMiB_en1X-167">
          <mxGeometry relative="1" as="geometry" />
        </mxCell>
        <mxCell id="Ydn4_hmh6kQKMiB_en1X-256" style="edgeStyle=orthogonalEdgeStyle;rounded=0;orthogonalLoop=1;jettySize=auto;html=1;entryX=1;entryY=0.5;entryDx=0;entryDy=0;endArrow=none;endFill=0;" edge="1" parent="Ydn4_hmh6kQKMiB_en1X-1" source="Ydn4_hmh6kQKMiB_en1X-205" target="Ydn4_hmh6kQKMiB_en1X-244">
          <mxGeometry relative="1" as="geometry">
            <Array as="points">
              <mxPoint x="230" y="1650" />
              <mxPoint x="1040" y="1650" />
              <mxPoint x="1040" y="1355" />
            </Array>
          </mxGeometry>
        </mxCell>
        <mxCell id="Ydn4_hmh6kQKMiB_en1X-261" style="edgeStyle=orthogonalEdgeStyle;rounded=0;orthogonalLoop=1;jettySize=auto;html=1;entryX=0;entryY=0.5;entryDx=0;entryDy=0;endArrow=none;endFill=0;" edge="1" parent="Ydn4_hmh6kQKMiB_en1X-1" source="Ydn4_hmh6kQKMiB_en1X-205" target="Ydn4_hmh6kQKMiB_en1X-190">
          <mxGeometry relative="1" as="geometry">
            <Array as="points">
              <mxPoint x="360" y="1500" />
              <mxPoint x="360" y="1355" />
            </Array>
          </mxGeometry>
        </mxCell>
        <mxCell id="Ydn4_hmh6kQKMiB_en1X-205" value="Course" style="swimlane;fontStyle=0;childLayout=stackLayout;horizontal=1;startSize=30;horizontalStack=0;resizeParent=1;resizeParentMax=0;resizeLast=0;collapsible=1;marginBottom=0;fillColor=none;" vertex="1" parent="Ydn4_hmh6kQKMiB_en1X-1">
          <mxGeometry x="160" y="1440" width="140" height="120" as="geometry" />
        </mxCell>
        <mxCell id="Ydn4_hmh6kQKMiB_en1X-206" value="courseId {PK}" style="text;strokeColor=none;fillColor=none;align=left;verticalAlign=middle;spacingLeft=4;spacingRight=4;overflow=hidden;points=[[0,0.5],[1,0.5]];portConstraint=eastwest;rotatable=0;" vertex="1" parent="Ydn4_hmh6kQKMiB_en1X-205">
          <mxGeometry y="30" width="140" height="30" as="geometry" />
        </mxCell>
        <mxCell id="Ydn4_hmh6kQKMiB_en1X-207" value="staffNo {FK}" style="text;strokeColor=none;fillColor=none;align=left;verticalAlign=middle;spacingLeft=4;spacingRight=4;overflow=hidden;points=[[0,0.5],[1,0.5]];portConstraint=eastwest;rotatable=0;" vertex="1" parent="Ydn4_hmh6kQKMiB_en1X-205">
          <mxGeometry y="60" width="140" height="30" as="geometry" />
        </mxCell>
        <mxCell id="Ydn4_hmh6kQKMiB_en1X-208" value="Item 3" style="text;strokeColor=none;fillColor=none;align=left;verticalAlign=middle;spacingLeft=4;spacingRight=4;overflow=hidden;points=[[0,0.5],[1,0.5]];portConstraint=eastwest;rotatable=0;" vertex="1" parent="Ydn4_hmh6kQKMiB_en1X-205">
          <mxGeometry y="90" width="140" height="30" as="geometry" />
        </mxCell>
        <mxCell id="Ydn4_hmh6kQKMiB_en1X-211" value="manages" style="text;html=1;strokeColor=none;fillColor=none;align=center;verticalAlign=middle;whiteSpace=wrap;rounded=0;" vertex="1" parent="Ydn4_hmh6kQKMiB_en1X-1">
          <mxGeometry x="180" y="1330" width="60" height="30" as="geometry" />
        </mxCell>
        <mxCell id="Ydn4_hmh6kQKMiB_en1X-212" value="" style="triangle;whiteSpace=wrap;html=1;fillColor=#000000;direction=south;" vertex="1" parent="Ydn4_hmh6kQKMiB_en1X-1">
          <mxGeometry x="195" y="1360" width="20" height="20" as="geometry" />
        </mxCell>
        <mxCell id="Ydn4_hmh6kQKMiB_en1X-214" value="1..1" style="text;html=1;strokeColor=none;fillColor=none;align=center;verticalAlign=middle;whiteSpace=wrap;rounded=0;" vertex="1" parent="Ydn4_hmh6kQKMiB_en1X-1">
          <mxGeometry x="300" y="1280" width="60" height="30" as="geometry" />
        </mxCell>
        <mxCell id="Ydn4_hmh6kQKMiB_en1X-215" value="0..1" style="text;html=1;strokeColor=none;fillColor=none;align=center;verticalAlign=middle;whiteSpace=wrap;rounded=0;" vertex="1" parent="Ydn4_hmh6kQKMiB_en1X-1">
          <mxGeometry x="214" y="1410" width="60" height="30" as="geometry" />
        </mxCell>
        <mxCell id="Ydn4_hmh6kQKMiB_en1X-216" value="1..1" style="text;html=1;strokeColor=none;fillColor=none;align=center;verticalAlign=middle;whiteSpace=wrap;rounded=0;" vertex="1" parent="Ydn4_hmh6kQKMiB_en1X-1">
          <mxGeometry x="291" y="1030" width="60" height="30" as="geometry" />
        </mxCell>
        <mxCell id="Ydn4_hmh6kQKMiB_en1X-217" value="1..1" style="text;html=1;strokeColor=none;fillColor=none;align=center;verticalAlign=middle;whiteSpace=wrap;rounded=0;" vertex="1" parent="Ydn4_hmh6kQKMiB_en1X-1">
          <mxGeometry x="120" y="1030" width="60" height="30" as="geometry" />
        </mxCell>
        <mxCell id="Ydn4_hmh6kQKMiB_en1X-218" value="0..1" style="text;html=1;strokeColor=none;fillColor=none;align=center;verticalAlign=middle;whiteSpace=wrap;rounded=0;" vertex="1" parent="Ydn4_hmh6kQKMiB_en1X-1">
          <mxGeometry x="314" y="1130" width="60" height="30" as="geometry" />
        </mxCell>
        <mxCell id="Ydn4_hmh6kQKMiB_en1X-219" value="0..1" style="text;html=1;strokeColor=none;fillColor=none;align=center;verticalAlign=middle;whiteSpace=wrap;rounded=0;" vertex="1" parent="Ydn4_hmh6kQKMiB_en1X-1">
          <mxGeometry x="94" y="1130" width="60" height="30" as="geometry" />
        </mxCell>
        <mxCell id="Ydn4_hmh6kQKMiB_en1X-225" style="edgeStyle=orthogonalEdgeStyle;rounded=0;orthogonalLoop=1;jettySize=auto;html=1;endArrow=none;endFill=0;" edge="1" parent="Ydn4_hmh6kQKMiB_en1X-1" source="Ydn4_hmh6kQKMiB_en1X-221" target="Ydn4_hmh6kQKMiB_en1X-188">
          <mxGeometry relative="1" as="geometry">
            <Array as="points">
              <mxPoint x="540" y="1540" />
            </Array>
          </mxGeometry>
        </mxCell>
        <mxCell id="Ydn4_hmh6kQKMiB_en1X-221" value="Staff_Module" style="swimlane;fontStyle=0;childLayout=stackLayout;horizontal=1;startSize=30;horizontalStack=0;resizeParent=1;resizeParentMax=0;resizeLast=0;collapsible=1;marginBottom=0;fillColor=none;" vertex="1" parent="Ydn4_hmh6kQKMiB_en1X-1">
          <mxGeometry x="380" y="1480" width="140" height="120" as="geometry" />
        </mxCell>
        <mxCell id="Ydn4_hmh6kQKMiB_en1X-222" value="Item 1" style="text;strokeColor=none;fillColor=none;align=left;verticalAlign=middle;spacingLeft=4;spacingRight=4;overflow=hidden;points=[[0,0.5],[1,0.5]];portConstraint=eastwest;rotatable=0;" vertex="1" parent="Ydn4_hmh6kQKMiB_en1X-221">
          <mxGeometry y="30" width="140" height="30" as="geometry" />
        </mxCell>
        <mxCell id="Ydn4_hmh6kQKMiB_en1X-223" value="Item 2" style="text;strokeColor=none;fillColor=none;align=left;verticalAlign=middle;spacingLeft=4;spacingRight=4;overflow=hidden;points=[[0,0.5],[1,0.5]];portConstraint=eastwest;rotatable=0;" vertex="1" parent="Ydn4_hmh6kQKMiB_en1X-221">
          <mxGeometry y="60" width="140" height="30" as="geometry" />
        </mxCell>
        <mxCell id="Ydn4_hmh6kQKMiB_en1X-224" value="Item 3" style="text;strokeColor=none;fillColor=none;align=left;verticalAlign=middle;spacingLeft=4;spacingRight=4;overflow=hidden;points=[[0,0.5],[1,0.5]];portConstraint=eastwest;rotatable=0;" vertex="1" parent="Ydn4_hmh6kQKMiB_en1X-221">
          <mxGeometry y="90" width="140" height="30" as="geometry" />
        </mxCell>
        <mxCell id="Ydn4_hmh6kQKMiB_en1X-226" style="edgeStyle=orthogonalEdgeStyle;rounded=0;orthogonalLoop=1;jettySize=auto;html=1;exitX=1;exitY=0.5;exitDx=0;exitDy=0;endArrow=none;endFill=0;" edge="1" parent="Ydn4_hmh6kQKMiB_en1X-1" source="Ydn4_hmh6kQKMiB_en1X-162" target="Ydn4_hmh6kQKMiB_en1X-221">
          <mxGeometry relative="1" as="geometry" />
        </mxCell>
        <mxCell id="Ydn4_hmh6kQKMiB_en1X-227" value="is fot" style="text;html=1;strokeColor=none;fillColor=none;align=center;verticalAlign=middle;whiteSpace=wrap;rounded=0;" vertex="1" parent="Ydn4_hmh6kQKMiB_en1X-1">
          <mxGeometry x="536" y="1470" width="60" height="30" as="geometry" />
        </mxCell>
        <mxCell id="Ydn4_hmh6kQKMiB_en1X-228" value="" style="triangle;whiteSpace=wrap;html=1;fillColor=#000000;direction=north;" vertex="1" parent="Ydn4_hmh6kQKMiB_en1X-1">
          <mxGeometry x="556" y="1450" width="20" height="20" as="geometry" />
        </mxCell>
        <mxCell id="Ydn4_hmh6kQKMiB_en1X-229" value="is fot" style="text;html=1;strokeColor=none;fillColor=none;align=center;verticalAlign=middle;whiteSpace=wrap;rounded=0;" vertex="1" parent="Ydn4_hmh6kQKMiB_en1X-1">
          <mxGeometry x="440" y="1220" width="60" height="30" as="geometry" />
        </mxCell>
        <mxCell id="Ydn4_hmh6kQKMiB_en1X-230" value="" style="triangle;whiteSpace=wrap;html=1;fillColor=#000000;direction=north;" vertex="1" parent="Ydn4_hmh6kQKMiB_en1X-1">
          <mxGeometry x="460" y="1200" width="20" height="20" as="geometry" />
        </mxCell>
        <mxCell id="Ydn4_hmh6kQKMiB_en1X-231" value="1..1" style="text;html=1;strokeColor=none;fillColor=none;align=center;verticalAlign=middle;whiteSpace=wrap;rounded=0;" vertex="1" parent="Ydn4_hmh6kQKMiB_en1X-1">
          <mxGeometry x="530" y="1400" width="60" height="30" as="geometry" />
        </mxCell>
        <mxCell id="Ydn4_hmh6kQKMiB_en1X-232" value="0..*" style="text;html=1;strokeColor=none;fillColor=none;align=center;verticalAlign=middle;whiteSpace=wrap;rounded=0;" vertex="1" parent="Ydn4_hmh6kQKMiB_en1X-1">
          <mxGeometry x="507" y="1540" width="60" height="30" as="geometry" />
        </mxCell>
        <mxCell id="Ydn4_hmh6kQKMiB_en1X-233" value="0..*" style="text;html=1;strokeColor=none;fillColor=none;align=center;verticalAlign=middle;whiteSpace=wrap;rounded=0;" vertex="1" parent="Ydn4_hmh6kQKMiB_en1X-1">
          <mxGeometry x="400" y="1450" width="60" height="30" as="geometry" />
        </mxCell>
        <mxCell id="Ydn4_hmh6kQKMiB_en1X-234" value="1..1" style="text;html=1;strokeColor=none;fillColor=none;align=center;verticalAlign=middle;whiteSpace=wrap;rounded=0;" vertex="1" parent="Ydn4_hmh6kQKMiB_en1X-1">
          <mxGeometry x="289" y="1060" width="60" height="30" as="geometry" />
        </mxCell>
        <mxCell id="Ydn4_hmh6kQKMiB_en1X-247" style="edgeStyle=orthogonalEdgeStyle;rounded=0;orthogonalLoop=1;jettySize=auto;html=1;endArrow=none;endFill=0;" edge="1" parent="Ydn4_hmh6kQKMiB_en1X-1" source="Ydn4_hmh6kQKMiB_en1X-235" target="Ydn4_hmh6kQKMiB_en1X-190">
          <mxGeometry relative="1" as="geometry" />
        </mxCell>
        <mxCell id="Ydn4_hmh6kQKMiB_en1X-235" value="Student_Module" style="swimlane;fontStyle=0;childLayout=stackLayout;horizontal=1;startSize=30;horizontalStack=0;resizeParent=1;resizeParentMax=0;resizeLast=0;collapsible=1;marginBottom=0;fillColor=none;" vertex="1" parent="Ydn4_hmh6kQKMiB_en1X-1">
          <mxGeometry x="680" y="1480" width="140" height="120" as="geometry" />
        </mxCell>
        <mxCell id="Ydn4_hmh6kQKMiB_en1X-236" value="Item 1" style="text;strokeColor=none;fillColor=none;align=left;verticalAlign=middle;spacingLeft=4;spacingRight=4;overflow=hidden;points=[[0,0.5],[1,0.5]];portConstraint=eastwest;rotatable=0;" vertex="1" parent="Ydn4_hmh6kQKMiB_en1X-235">
          <mxGeometry y="30" width="140" height="30" as="geometry" />
        </mxCell>
        <mxCell id="Ydn4_hmh6kQKMiB_en1X-237" value="Item 2" style="text;strokeColor=none;fillColor=none;align=left;verticalAlign=middle;spacingLeft=4;spacingRight=4;overflow=hidden;points=[[0,0.5],[1,0.5]];portConstraint=eastwest;rotatable=0;" vertex="1" parent="Ydn4_hmh6kQKMiB_en1X-235">
          <mxGeometry y="60" width="140" height="30" as="geometry" />
        </mxCell>
        <mxCell id="Ydn4_hmh6kQKMiB_en1X-238" value="Item 3" style="text;strokeColor=none;fillColor=none;align=left;verticalAlign=middle;spacingLeft=4;spacingRight=4;overflow=hidden;points=[[0,0.5],[1,0.5]];portConstraint=eastwest;rotatable=0;" vertex="1" parent="Ydn4_hmh6kQKMiB_en1X-235">
          <mxGeometry y="90" width="140" height="30" as="geometry" />
        </mxCell>
        <mxCell id="Ydn4_hmh6kQKMiB_en1X-242" value="Student" style="swimlane;fontStyle=0;childLayout=stackLayout;horizontal=1;startSize=30;horizontalStack=0;resizeParent=1;resizeParentMax=0;resizeLast=0;collapsible=1;marginBottom=0;fillColor=none;" vertex="1" parent="Ydn4_hmh6kQKMiB_en1X-1">
          <mxGeometry x="880" y="1280" width="140" height="120" as="geometry" />
        </mxCell>
        <mxCell id="Ydn4_hmh6kQKMiB_en1X-243" value="Item 1" style="text;strokeColor=none;fillColor=none;align=left;verticalAlign=middle;spacingLeft=4;spacingRight=4;overflow=hidden;points=[[0,0.5],[1,0.5]];portConstraint=eastwest;rotatable=0;" vertex="1" parent="Ydn4_hmh6kQKMiB_en1X-242">
          <mxGeometry y="30" width="140" height="30" as="geometry" />
        </mxCell>
        <mxCell id="Ydn4_hmh6kQKMiB_en1X-244" value="courseId {FK}" style="text;strokeColor=none;fillColor=none;align=left;verticalAlign=middle;spacingLeft=4;spacingRight=4;overflow=hidden;points=[[0,0.5],[1,0.5]];portConstraint=eastwest;rotatable=0;" vertex="1" parent="Ydn4_hmh6kQKMiB_en1X-242">
          <mxGeometry y="60" width="140" height="30" as="geometry" />
        </mxCell>
        <mxCell id="Ydn4_hmh6kQKMiB_en1X-245" value="Item 3" style="text;strokeColor=none;fillColor=none;align=left;verticalAlign=middle;spacingLeft=4;spacingRight=4;overflow=hidden;points=[[0,0.5],[1,0.5]];portConstraint=eastwest;rotatable=0;" vertex="1" parent="Ydn4_hmh6kQKMiB_en1X-242">
          <mxGeometry y="90" width="140" height="30" as="geometry" />
        </mxCell>
        <mxCell id="Ydn4_hmh6kQKMiB_en1X-246" style="edgeStyle=orthogonalEdgeStyle;rounded=0;orthogonalLoop=1;jettySize=auto;html=1;endArrow=none;endFill=0;" edge="1" parent="Ydn4_hmh6kQKMiB_en1X-1" source="Ydn4_hmh6kQKMiB_en1X-237" target="Ydn4_hmh6kQKMiB_en1X-242">
          <mxGeometry relative="1" as="geometry" />
        </mxCell>
        <mxCell id="Ydn4_hmh6kQKMiB_en1X-248" value="is for" style="text;html=1;strokeColor=none;fillColor=none;align=center;verticalAlign=middle;whiteSpace=wrap;rounded=0;" vertex="1" parent="Ydn4_hmh6kQKMiB_en1X-1">
          <mxGeometry x="950" y="1470" width="60" height="30" as="geometry" />
        </mxCell>
        <mxCell id="Ydn4_hmh6kQKMiB_en1X-249" value="" style="triangle;whiteSpace=wrap;html=1;fillColor=#000000;direction=north;" vertex="1" parent="Ydn4_hmh6kQKMiB_en1X-1">
          <mxGeometry x="970" y="1450" width="20" height="20" as="geometry" />
        </mxCell>
        <mxCell id="Ydn4_hmh6kQKMiB_en1X-250" value="is for" style="text;html=1;strokeColor=none;fillColor=none;align=center;verticalAlign=middle;whiteSpace=wrap;rounded=0;" vertex="1" parent="Ydn4_hmh6kQKMiB_en1X-1">
          <mxGeometry x="740" y="1400" width="60" height="30" as="geometry" />
        </mxCell>
        <mxCell id="Ydn4_hmh6kQKMiB_en1X-251" value="" style="triangle;whiteSpace=wrap;html=1;fillColor=#000000;direction=north;" vertex="1" parent="Ydn4_hmh6kQKMiB_en1X-1">
          <mxGeometry x="760" y="1380" width="20" height="20" as="geometry" />
        </mxCell>
        <mxCell id="Ydn4_hmh6kQKMiB_en1X-252" value="1..1" style="text;html=1;strokeColor=none;fillColor=none;align=center;verticalAlign=middle;whiteSpace=wrap;rounded=0;" vertex="1" parent="Ydn4_hmh6kQKMiB_en1X-1">
          <mxGeometry x="599.5" y="1325" width="60" height="30" as="geometry" />
        </mxCell>
        <mxCell id="Ydn4_hmh6kQKMiB_en1X-253" value="1..1" style="text;html=1;strokeColor=none;fillColor=none;align=center;verticalAlign=middle;whiteSpace=wrap;rounded=0;" vertex="1" parent="Ydn4_hmh6kQKMiB_en1X-1">
          <mxGeometry x="906" y="1400" width="60" height="30" as="geometry" />
        </mxCell>
        <mxCell id="Ydn4_hmh6kQKMiB_en1X-254" value="0..*" style="text;html=1;strokeColor=none;fillColor=none;align=center;verticalAlign=middle;whiteSpace=wrap;rounded=0;" vertex="1" parent="Ydn4_hmh6kQKMiB_en1X-1">
          <mxGeometry x="810" y="1530" width="60" height="30" as="geometry" />
        </mxCell>
        <mxCell id="Ydn4_hmh6kQKMiB_en1X-255" value="0..*" style="text;html=1;strokeColor=none;fillColor=none;align=center;verticalAlign=middle;whiteSpace=wrap;rounded=0;" vertex="1" parent="Ydn4_hmh6kQKMiB_en1X-1">
          <mxGeometry x="700" y="1450" width="60" height="30" as="geometry" />
        </mxCell>
        <mxCell id="Ydn4_hmh6kQKMiB_en1X-257" value="is registered" style="text;html=1;strokeColor=none;fillColor=none;align=center;verticalAlign=middle;whiteSpace=wrap;rounded=0;" vertex="1" parent="Ydn4_hmh6kQKMiB_en1X-1">
          <mxGeometry x="572.5" y="1620" width="97.5" height="30" as="geometry" />
        </mxCell>
        <mxCell id="Ydn4_hmh6kQKMiB_en1X-258" value="" style="triangle;whiteSpace=wrap;html=1;fillColor=#000000;direction=west;" vertex="1" parent="Ydn4_hmh6kQKMiB_en1X-1">
          <mxGeometry x="551.5" y="1625" width="20" height="20" as="geometry" />
        </mxCell>
        <mxCell id="Ydn4_hmh6kQKMiB_en1X-259" value="0..1" style="text;html=1;strokeColor=none;fillColor=none;align=center;verticalAlign=middle;whiteSpace=wrap;rounded=0;" vertex="1" parent="Ydn4_hmh6kQKMiB_en1X-1">
          <mxGeometry x="180" y="1560" width="60" height="30" as="geometry" />
        </mxCell>
        <mxCell id="Ydn4_hmh6kQKMiB_en1X-260" value="0..*" style="text;html=1;strokeColor=none;fillColor=none;align=center;verticalAlign=middle;whiteSpace=wrap;rounded=0;" vertex="1" parent="Ydn4_hmh6kQKMiB_en1X-1">
          <mxGeometry x="1010" y="1330" width="60" height="30" as="geometry" />
        </mxCell>
        <mxCell id="Ydn4_hmh6kQKMiB_en1X-262" value="consists of" style="text;html=1;strokeColor=none;fillColor=none;align=center;verticalAlign=middle;whiteSpace=wrap;rounded=0;" vertex="1" parent="Ydn4_hmh6kQKMiB_en1X-1">
          <mxGeometry x="315" y="1420" width="60" height="30" as="geometry" />
        </mxCell>
        <mxCell id="Ydn4_hmh6kQKMiB_en1X-263" value="" style="triangle;whiteSpace=wrap;html=1;fillColor=#000000;direction=north;" vertex="1" parent="Ydn4_hmh6kQKMiB_en1X-1">
          <mxGeometry x="335" y="1400" width="20" height="20" as="geometry" />
        </mxCell>
        <mxCell id="Ydn4_hmh6kQKMiB_en1X-264" value="0..1" style="text;html=1;strokeColor=none;fillColor=none;align=center;verticalAlign=middle;whiteSpace=wrap;rounded=0;" vertex="1" parent="Ydn4_hmh6kQKMiB_en1X-1">
          <mxGeometry x="285" y="1500" width="60" height="30" as="geometry" />
        </mxCell>
        <mxCell id="Ydn4_hmh6kQKMiB_en1X-265" value="1..*" style="text;html=1;strokeColor=none;fillColor=none;align=center;verticalAlign=middle;whiteSpace=wrap;rounded=0;" vertex="1" parent="Ydn4_hmh6kQKMiB_en1X-1">
          <mxGeometry x="420" y="1350" width="60" height="30" as="geometry" />
        </mxCell>
        <mxCell id="Ydn4_hmh6kQKMiB_en1X-266" value="Mentor" style="swimlane;fontStyle=0;childLayout=stackLayout;horizontal=1;startSize=30;horizontalStack=0;resizeParent=1;resizeParentMax=0;resizeLast=0;collapsible=1;marginBottom=0;fillColor=none;" vertex="1" parent="Ydn4_hmh6kQKMiB_en1X-1">
          <mxGeometry x="160" y="800" width="140" height="120" as="geometry" />
        </mxCell>
        <mxCell id="Ydn4_hmh6kQKMiB_en1X-267" value="Item 1" style="text;strokeColor=none;fillColor=none;align=left;verticalAlign=middle;spacingLeft=4;spacingRight=4;overflow=hidden;points=[[0,0.5],[1,0.5]];portConstraint=eastwest;rotatable=0;" vertex="1" parent="Ydn4_hmh6kQKMiB_en1X-266">
          <mxGeometry y="30" width="140" height="30" as="geometry" />
        </mxCell>
        <mxCell id="Ydn4_hmh6kQKMiB_en1X-268" value="mentorId {FK}" style="text;strokeColor=none;fillColor=none;align=left;verticalAlign=middle;spacingLeft=4;spacingRight=4;overflow=hidden;points=[[0,0.5],[1,0.5]];portConstraint=eastwest;rotatable=0;" vertex="1" parent="Ydn4_hmh6kQKMiB_en1X-266">
          <mxGeometry y="60" width="140" height="30" as="geometry" />
        </mxCell>
        <mxCell id="Ydn4_hmh6kQKMiB_en1X-269" value="Item 3" style="text;strokeColor=none;fillColor=none;align=left;verticalAlign=middle;spacingLeft=4;spacingRight=4;overflow=hidden;points=[[0,0.5],[1,0.5]];portConstraint=eastwest;rotatable=0;" vertex="1" parent="Ydn4_hmh6kQKMiB_en1X-266">
          <mxGeometry y="90" width="140" height="30" as="geometry" />
        </mxCell>
        <mxCell id="Ydn4_hmh6kQKMiB_en1X-270" style="edgeStyle=orthogonalEdgeStyle;rounded=0;orthogonalLoop=1;jettySize=auto;html=1;entryX=0;entryY=0.5;entryDx=0;entryDy=0;endArrow=none;endFill=0;" edge="1" parent="Ydn4_hmh6kQKMiB_en1X-1" source="Ydn4_hmh6kQKMiB_en1X-160" target="Ydn4_hmh6kQKMiB_en1X-268">
          <mxGeometry relative="1" as="geometry">
            <Array as="points">
              <mxPoint x="90" y="1005" />
              <mxPoint x="90" y="875" />
            </Array>
          </mxGeometry>
        </mxCell>
        <mxCell id="Ydn4_hmh6kQKMiB_en1X-271" value="mentors" style="text;html=1;strokeColor=none;fillColor=none;align=center;verticalAlign=middle;whiteSpace=wrap;rounded=0;" vertex="1" parent="Ydn4_hmh6kQKMiB_en1X-1">
          <mxGeometry x="34" y="940" width="60" height="30" as="geometry" />
        </mxCell>
        <mxCell id="Ydn4_hmh6kQKMiB_en1X-272" value="" style="triangle;whiteSpace=wrap;html=1;fillColor=#000000;direction=north;" vertex="1" parent="Ydn4_hmh6kQKMiB_en1X-1">
          <mxGeometry x="54" y="920" width="20" height="20" as="geometry" />
        </mxCell>
        <mxCell id="Ydn4_hmh6kQKMiB_en1X-273" value="0..1" style="text;html=1;strokeColor=none;fillColor=none;align=center;verticalAlign=middle;whiteSpace=wrap;rounded=0;" vertex="1" parent="Ydn4_hmh6kQKMiB_en1X-1">
          <mxGeometry x="110" y="980" width="60" height="30" as="geometry" />
        </mxCell>
        <mxCell id="Ydn4_hmh6kQKMiB_en1X-274" value="0..*" style="text;html=1;strokeColor=none;fillColor=none;align=center;verticalAlign=middle;whiteSpace=wrap;rounded=0;" vertex="1" parent="Ydn4_hmh6kQKMiB_en1X-1">
          <mxGeometry x="115" y="870" width="60" height="30" as="geometry" />
        </mxCell>
      </root>
    </mxGraphModel>
  </diagram>
</mxfile>
